<svg id="Camada_1" data-name="Camada 1" xmlns="http://www.w3.org/2000/svg" xmlns:xlink="http://www.w3.org/1999/xlink" viewBox="0 0 200 200"><defs><style>.cls-1{fill:url(#Gradiente_sem_nome_2);}.cls-2{fill:url(#Gradiente_sem_nome_2-2);}.cls-3{fill:url(#Gradiente_sem_nome_3);}.cls-4{fill:url(#Gradiente_sem_nome_5);}.cls-5{fill:url(#Gradiente_sem_nome_5-2);}</style><linearGradient id="Gradiente_sem_nome_2" x1="12.95" y1="100" x2="187.05" y2="100" gradientUnits="userSpaceOnUse"><stop offset="0" stop-color="#f28e86"/><stop offset="0.22" stop-color="#e9418f"/><stop offset="1" stop-color="#574596"/></linearGradient><linearGradient id="Gradiente_sem_nome_2-2" x1="93.31" y1="163.96" x2="-6.01" y2="154.5" gradientTransform="translate(86.29 -40.03) rotate(7.68)" xlink:href="#Gradiente_sem_nome_2"/><linearGradient id="Gradiente_sem_nome_3" x1="26.34" y1="85.44" x2="-54.06" y2="199.38" gradientTransform="translate(86.29 -40.03) rotate(7.68)" gradientUnits="userSpaceOnUse"><stop offset="0" stop-color="#fff"/><stop offset="1" stop-color="#4e4193"/></linearGradient><linearGradient id="Gradiente_sem_nome_5" x1="68.69" y1="109.44" x2="108.07" y2="109.44" gradientUnits="userSpaceOnUse"><stop offset="0" stop-color="#ad1257"/><stop offset="0.25" stop-color="#a81256"/><stop offset="0.54" stop-color="#9a1252"/><stop offset="0.84" stop-color="#83134b"/><stop offset="1" stop-color="#741347"/></linearGradient><linearGradient id="Gradiente_sem_nome_5-2" x1="105.62" y1="101.18" x2="73.34" y2="101.99" xlink:href="#Gradiente_sem_nome_5"/></defs><path class="cls-1" d="M100,187.05A87.05,87.05,0,1,1,187.05,100,87.15,87.15,0,0,1,100,187.05ZM100,14A86.05,86.05,0,1,0,186.05,100,86.15,86.15,0,0,0,100,14Z"/><path class="cls-2" d="M135.7,71.5c13.74,3.76,31.85,15.3,32.15,28.62.38,16.66-27.36,22.15-33.17,49.76-2.64,12.58,2,16.71-2.62,22.64-10.67,13.72-50.14,10.58-69.48-12.4C58.81,155.64,50,143.56,50.9,127.74,52.77,92.9,100.15,61.76,135.7,71.5Z"/><path class="cls-3" d="M55.42,24.26C45.76,18.87,15.18,41.43,17.7,59.52,19.55,72.84,38,74,39.45,88.05c1.29,12.89-13.82,17.15-14,32.82-.12,11.62,8,24.56,18.4,27.65,9.81,2.92,16.57-4.5,39.32-18.13,36.52-21.88,42.87-17,52.66-30.21,10-13.55,18.25-38.78,5.57-57.39C130.65,27,108,20.72,92.1,25.73,77.44,30.34,69.9,44.05,63.15,40.92,57.39,38.24,60.93,27.33,55.42,24.26Z"/><path class="cls-4" d="M95.17,111.49a12.31,12.31,0,1,0-13.58,0A19.71,19.71,0,0,0,68.69,130H72a16.41,16.41,0,0,1,32.82,0h3.28A19.71,19.71,0,0,0,95.17,111.49Zm-6.79-1.23a9,9,0,1,1,9-9A9,9,0,0,1,88.38,110.26Z"/><path class="cls-5" d="M110,103.18A13.12,13.12,0,1,0,93.72,82.75a12.82,12.82,0,0,0-2.24,2.83,16.6,16.6,0,0,1,3.09,1.64,9.77,9.77,0,0,1,2.35-2.61,9.62,9.62,0,1,1,8.45,16.89,9.72,9.72,0,0,1-2.6.37c-.31,0-.62,0-.92-.05a16.36,16.36,0,0,1-.59,3.66,15.11,15.11,0,0,1,1.51-.11,16,16,0,0,1,2.09.14,17.51,17.51,0,0,1,15.41,17.36h3.5A21,21,0,0,0,110,103.18Z"/></svg>