<svg id="Camada_1" data-name="Camada 1" xmlns="http://www.w3.org/2000/svg" xmlns:xlink="http://www.w3.org/1999/xlink" viewBox="0 0 200 200"><defs><style>.cls-1{fill:url(#Gradiente_sem_nome_3);}.cls-2{fill:url(#Gradiente_sem_nome_2);}.cls-3{fill:url(#Gradiente_sem_nome_3-2);}.cls-4{fill:url(#Gradiente_sem_nome_5);}.cls-5{fill:url(#Gradiente_sem_nome_3-3);}.cls-6{fill:url(#Gradiente_sem_nome_2-2);}</style><linearGradient id="Gradiente_sem_nome_3" x1="12.95" y1="100" x2="187.05" y2="100" gradientUnits="userSpaceOnUse"><stop offset="0" stop-color="#fff"/><stop offset="1" stop-color="#4e4193"/></linearGradient><linearGradient id="Gradiente_sem_nome_2" x1="91.34" y1="134.56" x2="-7.98" y2="125.1" gradientTransform="translate(-20.77 109.33) rotate(-84.2)" gradientUnits="userSpaceOnUse"><stop offset="0" stop-color="#f28e86"/><stop offset="0.22" stop-color="#e9418f"/><stop offset="1" stop-color="#574596"/></linearGradient><linearGradient id="Gradiente_sem_nome_3-2" x1="24.37" y1="56.05" x2="-56.03" y2="169.98" gradientTransform="translate(-20.77 109.33) rotate(-84.2)" xlink:href="#Gradiente_sem_nome_3"/><linearGradient id="Gradiente_sem_nome_5" x1="101.31" y1="122.77" x2="100.7" y2="80.7" gradientUnits="userSpaceOnUse"><stop offset="0" stop-color="#ad1257"/><stop offset="0.25" stop-color="#a81256"/><stop offset="0.54" stop-color="#9a1252"/><stop offset="0.84" stop-color="#83134b"/><stop offset="1" stop-color="#741347"/></linearGradient><linearGradient id="Gradiente_sem_nome_3-3" x1="95.76" y1="99.27" x2="128.1" y2="99.27" xlink:href="#Gradiente_sem_nome_3"/><linearGradient id="Gradiente_sem_nome_2-2" x1="73.92" y1="99.27" x2="106.26" y2="99.27" gradientTransform="matrix(1, 0, 0, 1, 0, 0)" xlink:href="#Gradiente_sem_nome_2"/></defs><path class="cls-1" d="M100,187.05A87.05,87.05,0,1,1,187.05,100,87.15,87.15,0,0,1,100,187.05ZM100,14A86.05,86.05,0,1,0,186.05,100,86.15,86.15,0,0,0,100,14Z"/><path class="cls-2" d="M59.64,55.28C63,41.43,73.89,23,87.2,22.2c16.63-.92,23,26.63,50.82,31.53,12.65,2.23,16.62-2.55,22.71,1.87,14.06,10.22,12.21,49.77-10.12,69.85-4.35,3.92-16.14,13.08-32,12.74C83.75,137.46,51.07,91.13,59.64,55.28Z"/><path class="cls-3" d="M15.05,137.06c-5.06,9.83,18.49,39.66,36.48,36.55,13.26-2.29,13.85-20.8,27.81-22.67,12.84-1.72,17.59,13.25,33.26,12.88,11.62-.26,24.28-8.84,27-19.29,2.59-9.9-5-16.42-19.41-38.71C97.16,70,101.83,63.53,88.3,54.18c-13.88-9.59-39.36-17-57.54-3.68-15.45,11.29-21,34.1-15.43,49.86,5.09,14.5,19,21.59,16.12,28.43C29,134.63,17.94,131.46,15.05,137.06Z"/><path class="cls-4" d="M108.66,110.23a13.15,13.15,0,1,0-14.5,0A21.05,21.05,0,0,0,80.37,130h3.51a17.53,17.53,0,0,1,35.06,0h3.5A21,21,0,0,0,108.66,110.23Zm-16.89-11a9.64,9.64,0,1,1,9.64,9.64A9.65,9.65,0,0,1,91.77,99.27Z"/><path class="cls-5" d="M126.19,101.46a13.14,13.14,0,1,0-18.56-17.62,16.41,16.41,0,0,1,3.1,1.64,9.63,9.63,0,1,1,10.81,14.3,9.72,9.72,0,0,1-2.6.37c-.31,0-.62,0-.92-.05a16.36,16.36,0,0,1-.59,3.66c.5,0,1-.11,1.51-.11a18.21,18.21,0,0,1,2.1.14,17.55,17.55,0,0,1,15.43,17.39H140A21.05,21.05,0,0,0,126.19,101.46Z"/><path class="cls-6" d="M83.88,103.65c.51,0,1,.07,1.51.11a16.36,16.36,0,0,1-.59-3.66c-.31,0-.61.05-.92.05a9.64,9.64,0,0,1,0-19.28,9.6,9.6,0,0,1,5.86,2,9.77,9.77,0,0,1,2.35,2.61,15.82,15.82,0,0,1,3.1-1.64A13.47,13.47,0,0,0,92.94,81a13.14,13.14,0,1,0-16.31,20.46,21.06,21.06,0,0,0-13.79,19.72h3.51a17.54,17.54,0,0,1,15.43-17.39A18.21,18.21,0,0,1,83.88,103.65Z"/></svg>