<svg id="Camada_1" data-name="Camada 1" xmlns="http://www.w3.org/2000/svg" xmlns:xlink="http://www.w3.org/1999/xlink" viewBox="0 0 200 200"><defs><style>.cls-1{fill:url(#Gradiente_sem_nome_2);}.cls-2{fill:url(#Gradiente_sem_nome_2-2);}.cls-3{fill:url(#Gradiente_sem_nome_3);}.cls-4{fill:url(#Gradiente_sem_nome_5);}.cls-5{fill:url(#Gradiente_sem_nome_5-2);}.cls-6{fill:url(#Gradiente_sem_nome_5-3);}.cls-7{fill:url(#Gradiente_sem_nome_2-3);}.cls-8{fill:url(#Gradiente_sem_nome_2-4);}.cls-9{fill:url(#Gradiente_sem_nome_2-5);}</style><linearGradient id="Gradiente_sem_nome_2" x1="12.95" y1="100" x2="187.05" y2="100" gradientUnits="userSpaceOnUse"><stop offset="0" stop-color="#f28e86"/><stop offset="0.22" stop-color="#e9418f"/><stop offset="1" stop-color="#574596"/></linearGradient><linearGradient id="Gradiente_sem_nome_2-2" x1="18.63" y1="88.69" x2="109.15" y2="130.65" gradientTransform="translate(147.41 42.12) rotate(57.69)" xlink:href="#Gradiente_sem_nome_2"/><linearGradient id="Gradiente_sem_nome_3" x1="8.47" y1="108.37" x2="3.53" y2="-31" gradientTransform="translate(147.41 42.12) rotate(57.69)" gradientUnits="userSpaceOnUse"><stop offset="0" stop-color="#fff"/><stop offset="1" stop-color="#4e4193"/></linearGradient><linearGradient id="Gradiente_sem_nome_5" x1="78.08" y1="111.2" x2="119.58" y2="111.2" gradientUnits="userSpaceOnUse"><stop offset="0" stop-color="#ad1257"/><stop offset="0.25" stop-color="#a81256"/><stop offset="0.54" stop-color="#9a1252"/><stop offset="0.84" stop-color="#83134b"/><stop offset="1" stop-color="#741347"/></linearGradient><linearGradient id="Gradiente_sem_nome_5-2" x1="104.97" y1="102.55" x2="136.87" y2="102.55" xlink:href="#Gradiente_sem_nome_5"/><linearGradient id="Gradiente_sem_nome_5-3" x1="60.79" y1="102.55" x2="92.69" y2="102.55" xlink:href="#Gradiente_sem_nome_5"/><linearGradient id="Gradiente_sem_nome_2-3" x1="117.07" y1="90.45" x2="148.97" y2="90.45" xlink:href="#Gradiente_sem_nome_2"/><linearGradient id="Gradiente_sem_nome_2-4" x1="42.35" y1="90.45" x2="74.26" y2="90.45" xlink:href="#Gradiente_sem_nome_2"/><linearGradient id="Gradiente_sem_nome_2-5" x1="94.19" y1="74.42" x2="119.3" y2="74.42" xlink:href="#Gradiente_sem_nome_2"/></defs><path class="cls-1" d="M100,187.05A87.05,87.05,0,1,1,187.05,100,87.15,87.15,0,0,1,100,187.05ZM100,14A86.05,86.05,0,1,0,186.05,100,86.15,86.15,0,0,0,100,14Z"/><path class="cls-2" d="M141.29,116.9c6,12.94,8.75,34.23-1.27,43-12.51,11-34.55-6.73-59.44,6.56-11.33,6.06-11.51,12.27-19,12.55-17.36.63-40.32-31.62-35.15-61.2,1-5.77,4.63-20.25,17.3-29.77C71.6,67.12,125.9,83.4,141.29,116.9Z"/><path class="cls-3" d="M125.89,25c-2.08-10.86-39-19.79-51.26-6.24-9,10,2,24.92-7.88,35-9,9.28-22,.44-34.13,10.39-9,7.39-13.64,21.95-9.35,31.87,4.07,9.39,14.1,9.8,39.16,18.47,40.23,13.92,40.57,21.92,57,20.93,16.84-1,41.44-10.94,47.54-32.61,5.19-18.42-4.55-39.77-18.63-48.76-13-8.27-28.3-5.24-30.23-12.41C116.44,35.53,127.08,31.23,125.89,25Z"/><path class="cls-4" d="M106,113.36a13,13,0,1,0-14.3,0,20.76,20.76,0,0,0-13.6,19.45h3.46a17.29,17.29,0,0,1,34.58,0h3.46A20.77,20.77,0,0,0,106,113.36Zm-7.15-1.3a9.51,9.51,0,1,1,9.51-9.51A9.52,9.52,0,0,1,98.83,112.06Z"/><path class="cls-5" d="M123.27,104.71a13,13,0,1,0-16.09-20.18,13.31,13.31,0,0,0-2.21,2.8A15.91,15.91,0,0,1,108,89a9.49,9.49,0,1,1,8.1,14.47c-.3,0-.61,0-.91,0a15.92,15.92,0,0,1-.58,3.61c.5,0,1-.1,1.49-.1a17.7,17.7,0,0,1,2.07.13,17.32,17.32,0,0,1,15.22,17.16h3.46A20.77,20.77,0,0,0,123.27,104.71Z"/><path class="cls-6" d="M81.54,106.88c.5,0,1,.06,1.49.1a16.5,16.5,0,0,1-.59-3.61,8.88,8.88,0,0,1-.9,0,9.51,9.51,0,1,1,5.78-17A9.7,9.7,0,0,1,89.64,89a15.62,15.62,0,0,1,3-1.62,13,13,0,0,0-2.22-2.8,13,13,0,1,0-16.08,20.18,20.77,20.77,0,0,0-13.6,19.46h3.46A17.32,17.32,0,0,1,79.47,107,17.7,17.7,0,0,1,81.54,106.88Z"/><path class="cls-7" d="M135.38,92.61a13,13,0,1,0-18.31-17.39,17.2,17.2,0,0,1,3.06,1.62,9.5,9.5,0,1,1,12.05,13.6,15,15,0,0,1,.23,2.52,14.57,14.57,0,0,1-.2,2.3,17.31,17.31,0,0,1,13.31,16.8H149A20.76,20.76,0,0,0,135.38,92.61Z"/><path class="cls-8" d="M65.25,93a14,14,0,0,1,.23-2.52,9.5,9.5,0,0,1,4-18.15,9.39,9.39,0,0,1,5.78,2,9.64,9.64,0,0,1,2.32,2.57,16.86,16.86,0,0,1,3.06-1.62,13,13,0,0,0-2.22-2.79A13,13,0,1,0,62.28,92.61a20.77,20.77,0,0,0-13.6,19.45h3.46a17.3,17.3,0,0,1,13.31-16.8A14.57,14.57,0,0,1,65.25,93Z"/><path class="cls-9" d="M98.83,72.29A9.49,9.49,0,0,1,108.12,80a10.8,10.8,0,0,1,3.26-1.4,12.95,12.95,0,0,0-25.1,0A10.8,10.8,0,0,1,89.54,80,9.49,9.49,0,0,1,98.83,72.29Z"/></svg>