<svg xmlns="http://www.w3.org/2000/svg" xmlns:xlink="http://www.w3.org/1999/xlink" viewBox="0 0 797 400"><defs><style>.cls-1{isolation:isolate;}.cls-2{fill:url(#Gradiente_sem_nome_5);}.cls-3,.cls-32,.cls-33,.cls-4{fill:none;}.cls-11,.cls-3,.cls-32,.cls-33,.cls-4,.cls-8{stroke:#fff;stroke-miterlimit:10;}.cls-32,.cls-33,.cls-4{stroke-width:0.25px;}.cls-5{fill:#8e1157;}.cls-6{fill:url(#Gradiente_sem_nome_2);}.cls-7{fill:url(#Gradiente_sem_nome_3);}.cls-12,.cls-23,.cls-8{fill:#fff;}.cls-9{fill:url(#Gradiente_sem_nome_4);}.cls-10{fill:url(#Gradiente_sem_nome_2-2);}.cls-11{fill:#ab1257;stroke-width:3px;}.cls-13,.cls-25{fill:#1d1d1b;}.cls-14,.cls-16{fill:#3c3c3b;}.cls-15{fill:#575756;}.cls-16,.cls-25,.cls-27{mix-blend-mode:multiply;}.cls-17{fill:#c6c6c6;}.cls-18{fill:#e68f5e;}.cls-19,.cls-27{fill:#9d9d9c;}.cls-20{fill:#4b4b4a;}.cls-21{fill:#878787;}.cls-22{fill:#706f6f;}.cls-23,.cls-25,.cls-27{opacity:0.5;}.cls-24{fill:#ffae80;}.cls-26{fill:#dadada;}.cls-28{fill:#2e2e2d;}.cls-29{fill:#b2b2b2;}.cls-30{fill:#10100f;}.cls-31{fill:#191917;}.cls-32{stroke-dasharray:10.84 10.84;}.cls-33{stroke-dasharray:11.82 11.82;}</style><linearGradient id="Gradiente_sem_nome_5" y1="200" x2="797" y2="200" gradientUnits="userSpaceOnUse"><stop offset="0" stop-color="#ac1157"/><stop offset="0.25" stop-color="#a71156"/><stop offset="0.54" stop-color="#991152"/><stop offset="0.85" stop-color="#82114b"/><stop offset="1" stop-color="#741147"/></linearGradient><linearGradient id="Gradiente_sem_nome_2" x1="718.48" y1="275.38" x2="641.52" y2="268.05" gradientTransform="translate(36.52 -83.1) rotate(7.68)" gradientUnits="userSpaceOnUse"><stop offset="0" stop-color="#ff9085"/><stop offset="0.22" stop-color="#fe3991"/><stop offset="1" stop-color="#8000fb"/></linearGradient><linearGradient id="Gradiente_sem_nome_3" x1="666.59" y1="214.54" x2="604.29" y2="302.83" gradientTransform="translate(36.52 -83.1) rotate(7.68)" gradientUnits="userSpaceOnUse"><stop offset="0" stop-color="#fff"/><stop offset="1" stop-color="#6300dc"/></linearGradient><linearGradient id="Gradiente_sem_nome_4" x1="463.81" y1="196.06" x2="385.04" y2="188.56" gradientTransform="matrix(0.81, 0.59, -0.59, 0.81, 382.6, -265.26)" gradientUnits="userSpaceOnUse"><stop offset="0" stop-color="#ff8aff"/><stop offset="1" stop-color="#6300dc"/></linearGradient><linearGradient id="Gradiente_sem_nome_2-2" x1="408.19" y1="137.34" x2="344.42" y2="227.71" gradientTransform="matrix(0.81, 0.59, -0.59, 0.81, 382.6, -265.26)" xlink:href="#Gradiente_sem_nome_2"/></defs><g class="cls-1"><g id="Camada_1" data-name="Camada 1"><rect class="cls-2" width="797" height="400"/><path class="cls-3" d="M211.62,353.13a181.07,181.07,0,0,1,0-306.26"/><path class="cls-3" d="M418.44,56.43a181,181,0,0,1-13.7,296.71"/><circle class="cls-3" cx="667.71" cy="258.75" r="67.07"/><path class="cls-4" d="M506.92,75.43A233.42,233.42,0,0,1,542.7,200c0,129.52-105,234.52-234.51,234.52S73.67,329.52,73.67,200A233.34,233.34,0,0,1,109.46,75.43"/><circle class="cls-5" cx="690.71" cy="51.03" r="16.55"/><circle class="cls-5" cx="464.03" cy="341.21" r="17.19"/><circle class="cls-5" cx="150.71" cy="62.9" r="16.02"/><path class="cls-6" d="M695.38,236.66c10.64,2.91,24.67,11.86,24.91,22.18.3,12.91-21.2,17.16-25.7,38.56-2.05,9.74,1.55,12.94-2,17.54-8.27,10.63-38.85,8.2-53.84-9.61-2.92-3.47-9.71-12.83-9.05-25.09C631.12,253.24,667.83,229.11,695.38,236.66Z"/><path class="cls-7" d="M633.17,200.06c-7.48-4.18-31.18,13.31-29.23,27.32,1.44,10.32,15.76,11.25,16.85,22.11,1,10-10.7,13.28-10.82,25.43-.09,9,6.23,19,14.26,21.42,7.6,2.26,12.84-3.49,30.46-14,28.3-17,33.22-13.17,40.81-23.41,7.78-10.5,14.14-30,4.31-44.46-8.35-12.25-25.88-17.1-38.22-13.22-11.36,3.57-17.2,14.19-22.43,11.77C634.7,210.89,637.44,202.44,633.17,200.06Z"/><circle class="cls-8" cx="196.64" cy="360.48" r="0.78"/><circle class="cls-8" cx="214.93" cy="365.8" r="0.78"/><circle class="cls-8" cx="264.29" cy="324.16" r="0.78"/><circle class="cls-8" cx="455.33" cy="265.45" r="0.78"/><circle class="cls-8" cx="460.26" cy="319.75" r="0.78"/><circle class="cls-8" cx="724.54" cy="37.38" r="0.78"/><circle class="cls-8" cx="566.69" cy="193.23" r="0.78"/><circle class="cls-8" cx="189.29" cy="36.79" r="0.78"/><circle class="cls-8" cx="189.62" cy="36.66" r="0.78"/><circle class="cls-8" cx="58.14" cy="113.34" r="0.78"/><circle class="cls-8" cx="68.24" cy="104.98" r="3.26"/><circle class="cls-8" cx="438.71" cy="244.09" r="3.26"/><circle class="cls-8" cx="487.97" cy="180" r="3.26"/><circle class="cls-8" cx="511.97" cy="83.67" r="3.26"/><ellipse class="cls-5" cx="314.56" cy="361.26" rx="71.67" ry="1.55"/><path class="cls-9" d="M651.1,114.15c8.16,7.81,16.44,22.7,11.62,32.11-6,11.76-27.45,5.12-41.92,22.19-6.59,7.78-4.9,12.41-10.37,14.81-12.62,5.54-39-11.55-43.79-34.87-.94-4.55-2.49-16.29,4.07-27C585.17,97.79,630,93.94,651.1,114.15Z"/><path class="cls-10" d="M612.92,50.9c-4.71-7.4-34.56-3.2-39.63,10.37-3.73,10,8.71,17.8,4.41,28.11-4,9.48-16.11,6.74-22.13,17.62-4.46,8.07-3.66,20.17,2.4,26.23,5.74,5.74,13.26,3.12,34.27,2.19,33.74-1.48,36.33,4.33,48.14-1.2,12.12-5.66,27.37-20.16,25.54-37.93-1.55-15.1-15-28-28-30.52-12-2.31-22.4,4.4-25.92-.33C609,61.41,615.6,55.13,612.92,50.9Z"/><ellipse class="cls-3" cx="604.95" cy="119.15" rx="49.03" ry="46.07"/><circle class="cls-11" cx="310.5" cy="199.16" r="141"/><path class="cls-12" d="M318.55,237.22c-1.34,6.8-8,29.64-10.23,36.44H205v-6.15c20.22-2,22-3.07,22-21.73v-88.1c0-18.9-2.23-20-20-21.79v-6.23h60v6.21c-17.58,1.78-20,2.66-20,21.72v90.22c0,13.53,1.75,16.62,14.28,16.85.23,0,15.72.21,17.05.21,11.33,0,14.66-1.31,19.77-6.8,5.56-5.71,10.22-14.49,13.55-22.61Z"/><path class="cls-12" d="M417,133.81c-10.37,1.49-11.85,2.67-15.85,14.83-4.89,14.83-16.74,52.49-24.89,79h-5c-7.7-23.13-17.63-51.74-25.33-73.68-8.59,25.49-17.33,50.85-25,73.68H316c-7.4-25.5-15.85-53.23-23.85-79.17-3.85-12-5.48-13.64-15.11-14.68v-4.15h37v3.85c-10.87,1.18-11.17,2.81-9.1,10.2,5.77,20,11.69,39.65,17.75,60.5,8.14-23.52,17-49.25,24.55-73.55h4.73c8.29,25.18,16.57,48.55,25.15,73.7,6.21-19.67,14.65-46,17.9-58.87,2.21-8.58,1-10.5-12-12v-3.85h34Z"/><image width="2289" height="2289" transform="translate(295 181.66) scale(0.05)" xlink:href="../Downloads/kisspng-bts-k-pop-image-photograph-desktop-wallpaper-5d216e583f7683.06942028156247202426.png"/><circle class="cls-13" cx="611.73" cy="95.62" r="6.07"/><path class="cls-14" d="M594.47,78.54,596.23,91a1.85,1.85,0,0,0,1.12,1.45L618.24,101a2.26,2.26,0,0,0,2.35-.39L631,91.34l-1.73-12.67a1.94,1.94,0,0,0-1.19-1.54L607,68.61a2,2,0,0,0-2,.29l-9.78,7.77A2,2,0,0,0,594.47,78.54Z"/><path class="cls-13" d="M629.86,83.85l.09-.22-2.22-1.06-.08,0c-2.26-.92-5.37,1.46-7,5.32s-1.05,7.65,1.13,8.64l2.23,1.06.09-.22c2.1,0,4.58-2.21,5.94-5.52S631.24,85.38,629.86,83.85Z"/><path class="cls-14" d="M631.08,92.27c-1.58,3.86-4.7,6.24-7,5.31s-2.8-4.81-1.21-8.67,4.7-6.24,7-5.32S632.67,88.4,631.08,92.27Z"/><path class="cls-15" d="M633.18,83.47l.11-.27-2.73-1.31-.1,0c-2.77-1.14-6.59,1.79-8.54,6.53s-1.3,9.4,1.39,10.61l2.73,1.3.12-.27c2.58,0,5.61-2.71,7.28-6.77S634.87,85.35,633.18,83.47Z"/><path class="cls-14" d="M634.68,93.8c-1.95,4.75-5.77,7.67-8.54,6.53s-3.43-5.9-1.49-10.65,5.78-7.66,8.55-6.53S636.63,89.06,634.68,93.8Z"/><path class="cls-14" d="M627.61,105.5s-8.27-7.49-2.54-17.89c5.53-10,16-7.36,16-7.36Z"/><path class="cls-15" d="M645.14,80.8l.21-.49-2.19-1-.17-.07c-4.89-2-11.64,3.15-15.08,11.53s-2.29,16.59,2.46,18.72l2.18,1,.2-.48c4.55,0,9.92-4.79,12.86-12C648.47,91.1,648.14,84.11,645.14,80.8Z"/><ellipse class="cls-13" cx="638.95" cy="95.4" rx="16.39" ry="9.57" transform="translate(307.9 650.17) rotate(-67.67)"/><path class="cls-12" d="M646,98.31c-2.89,7-8.4,11.44-12.3,9.84S629,99.54,631.88,92.5s8.4-11.44,12.3-9.84S648.9,91.27,646,98.31Z"/><path class="cls-16" d="M595.85,80.3l1.46,10.3a1.06,1.06,0,0,0,.64.83l19,7.81a.59.59,0,0,0,.81-.63l-1.41-9.92a1.82,1.82,0,0,0-1.11-1.42l-18.6-7.58A.57.57,0,0,0,595.85,80.3Z"/><polygon class="cls-17" points="633.91 114.35 650.49 133.69 669.4 119 648.37 103.2 633.91 114.35"/><polygon class="cls-17" points="648.34 78.28 650.95 96.66 677.61 96.89 674.3 73.6 648.34 78.28"/><path class="cls-14" d="M629.49,108.08a.86.86,0,0,1-1-.73l-.91-6.44a.85.85,0,0,1,.72-1,.86.86,0,0,1,1,.73l.91,6.44A.86.86,0,0,1,629.49,108.08Z"/><polygon class="cls-15" points="627.55 94.43 632.78 105.1 635.1 130 630.19 113.03 627.55 94.43"/><path class="cls-14" d="M634.35,85.72a.85.85,0,0,1-.64-1.52l6.46-4.94a.85.85,0,0,1,1,1.35l-6.46,4.94A.85.85,0,0,1,634.35,85.72Z"/><path class="cls-14" d="M639.15,111.24a.83.83,0,0,1-.79-.32.86.86,0,0,1,.15-1.2l4.56-3.51a.85.85,0,0,1,1.19.15.86.86,0,0,1-.15,1.2l-4.56,3.51A.79.79,0,0,1,639.15,111.24Z"/><path class="cls-14" d="M650.39,92.72a.86.86,0,0,1-1-.73l-1-6.89a.85.85,0,1,1,1.69-.24l1,6.89A.86.86,0,0,1,650.39,92.72Z"/><polygon class="cls-15" points="630.4 88.02 643.84 86.11 662.65 71.45 644.67 76.8 630.4 88.02"/><path d="M670.78,237.64h-.19c-2.65-.08-3.3-2.62-4-5.32-.63-2.47-1.34-5.26-3.67-6.72a.35.35,0,0,1-.11-.49.36.36,0,0,1,.49-.12c2.57,1.61,3.32,4.56,4,7.15.75,2.93,1.31,4.72,3.31,4.78,2.93.09,5.42-2.17,7-4.08,3-3.54,4.89-8.46,4.52-10.18a.36.36,0,1,1,.7-.15c.41,1.91-1.54,7-4.67,10.79C676.51,235.29,673.89,237.64,670.78,237.64Z"/><path class="cls-18" d="M679.78,221.92l1,2.52c2-.2,3.72-.59,4.6-1.89l.66-4.37-2.73-.47Z"/><polygon class="cls-18" points="692.54 226.8 691.9 224.19 694.86 222.89 694.61 226.15 692.54 226.8"/><path class="cls-13" d="M698.67,220.92l1.46-.84a1.47,1.47,0,0,0,.6-1.34,4.56,4.56,0,0,0-2.06-3.57,1.44,1.44,0,0,0-1.46-.14l-1.46.84Z"/><path class="cls-14" d="M696.83,222.2l2.22-1.28a1.56,1.56,0,0,0,.64-1.42,4.83,4.83,0,0,0-2.2-3.8,1.53,1.53,0,0,0-1.55-.15l-2.22,1.28Z"/><path class="cls-13" d="M693.08,218.25c0-1.4,1-2,2.2-1.27a4.85,4.85,0,0,1,2.19,3.8c0,1.4-1,2-2.19,1.27A4.83,4.83,0,0,1,693.08,218.25Z"/><path class="cls-13" d="M697.29,221.69l2.22-1.28-.12.19-2.22,1.28A1.57,1.57,0,0,0,697.29,221.69Z"/><path class="cls-13" d="M697.41,221.32l2.22-1.28a.83.83,0,0,1,0,.15l-2.22,1.28A.83.83,0,0,0,697.41,221.32Z"/><path class="cls-13" d="M697.46,221l2.22-1.28s0,.09,0,.13l-2.22,1.28S697.46,221,697.46,221Z"/><path class="cls-13" d="M697.47,220.7l2.22-1.29v.13l-2.22,1.28v-.12Z"/><path class="cls-13" d="M697.45,220.41l2.22-1.28s0,.08,0,.12l-2.22,1.29S697.45,220.45,697.45,220.41Z"/><path class="cls-13" d="M697.41,220.14l2.22-1.28a.5.5,0,0,0,0,.12l-2.22,1.28S697.42,220.18,697.41,220.14Z"/><path class="cls-13" d="M697.35,219.88l2.22-1.28,0,.11L697.38,220Z"/><path class="cls-13" d="M697.28,219.62l2.22-1.28,0,.11-2.22,1.28Z"/><path class="cls-13" d="M697.19,219.38l2.22-1.28s0,.07,0,.11l-2.22,1.28S697.2,219.42,697.19,219.38Z"/><path class="cls-13" d="M697.09,219.14l2.22-1.28.05.1-2.22,1.28Z"/><path class="cls-13" d="M697,218.91l2.22-1.28a.31.31,0,0,1,0,.1L697,219A.31.31,0,0,0,697,218.91Z"/><path class="cls-13" d="M696.86,218.68l2.22-1.28.06.1-2.22,1.28Z"/><path class="cls-13" d="M696.73,218.46l2.22-1.28.06.09-2.22,1.29Z"/><path class="cls-13" d="M696.59,218.24l2.22-1.28.06.1-2.21,1.28A.36.36,0,0,1,696.59,218.24Z"/><path class="cls-13" d="M696.44,218l2.22-1.28.07.09-2.22,1.28Z"/><path class="cls-13" d="M696.28,217.84l2.22-1.28.07.08-2.22,1.28Z"/><path class="cls-13" d="M696.1,217.64l2.22-1.28.08.08-2.22,1.29Z"/><path class="cls-13" d="M695.91,217.45l2.22-1.28.09.09L696,217.54Z"/><path class="cls-13" d="M695.71,217.28l2.22-1.28.09.07-2.22,1.28Z"/><path class="cls-13" d="M695.48,217.11l2.22-1.28.1.07-2.22,1.28Z"/><path class="cls-13" d="M695.24,217l2.22-1.28,0,0,.07,0L695.35,217l-.07,0Z"/><path class="cls-13" d="M695,216.82l2.22-1.28.12.06-2.21,1.28Z"/><path class="cls-13" d="M694.63,216.72l2.22-1.28.15,0-2.22,1.28Z"/><path class="cls-13" d="M694.17,216.69l2.22-1.28h.23l-2.22,1.29Z"/><path class="cls-14" d="M695.89,222.67l.83-.48a1.52,1.52,0,0,0,.63-1.39,4.76,4.76,0,0,0-2.15-3.73,1.53,1.53,0,0,0-1.52-.15l-.83.49Z"/><path class="cls-13" d="M692.22,218.8c0-1.37,1-1.93,2.15-1.24a4.73,4.73,0,0,1,2.15,3.72c0,1.37-1,1.92-2.15,1.24A4.75,4.75,0,0,1,692.22,218.8Z"/><path class="cls-14" d="M694.37,223.62l1.34-.78a1.53,1.53,0,0,0,.65-1.42,4.86,4.86,0,0,0-2.2-3.8,1.53,1.53,0,0,0-1.55-.15l-1.34.77Z"/><path class="cls-19" d="M690.63,219.66c0-1.39,1-2,2.19-1.26a4.85,4.85,0,0,1,2.19,3.8c0,1.4-1,2-2.19,1.27A4.87,4.87,0,0,1,690.63,219.66Z"/><path class="cls-13" d="M694.83,223.11l1.34-.78a1.28,1.28,0,0,1-.11.2l-1.34.77A1.18,1.18,0,0,0,694.83,223.11Z"/><path class="cls-13" d="M695,222.74l1.34-.78a.75.75,0,0,1,0,.16l-1.34.77S695,222.79,695,222.74Z"/><path class="cls-13" d="M695,222.41l1.34-.77a.68.68,0,0,1,0,.14l-1.34.77S695,222.46,695,222.41Z"/><path class="cls-13" d="M695,222.11l1.34-.77a.25.25,0,0,1,0,.08v.05l-1.34.77v0A.28.28,0,0,0,695,222.11Z"/><path class="cls-13" d="M695,221.83l1.34-.77s0,.08,0,.12L695,222S695,221.87,695,221.83Z"/><path class="cls-13" d="M695,221.56l1.34-.78a.5.5,0,0,1,0,.12l-1.34.78A.5.5,0,0,0,695,221.56Z"/><path class="cls-13" d="M694.89,221.3l1.34-.78a.53.53,0,0,1,0,.12l-1.34.77Z"/><path class="cls-13" d="M694.82,221l1.34-.77s0,.07,0,.11l-1.34.77A.36.36,0,0,1,694.82,221Z"/><path class="cls-13" d="M694.74,220.8l1.34-.78a.49.49,0,0,0,0,.11l-1.35.77Z"/><path class="cls-13" d="M694.64,220.56l1.34-.78,0,.11-1.34.77Z"/><path class="cls-13" d="M694.53,220.32l1.34-.77,0,.1-1.34.78Z"/><path class="cls-13" d="M694.41,220.1l1.34-.78,0,.1-1.34.78A.31.31,0,0,0,694.41,220.1Z"/><path class="cls-13" d="M694.28,219.88l1.34-.78.06.1-1.34.77Z"/><path class="cls-13" d="M694.14,219.66l1.34-.77.06.09-1.34.78Z"/><path class="cls-13" d="M694,219.45l1.34-.77.06.09-1.34.78Z"/><path class="cls-13" d="M693.82,219.25l1.34-.77.08.09-1.34.77Z"/><path class="cls-13" d="M693.65,219.06l1.34-.78.08.09-1.34.77A.6.6,0,0,1,693.65,219.06Z"/><path class="cls-13" d="M693.46,218.87l1.34-.77a.6.6,0,0,1,.08.08l-1.34.77A.6.6,0,0,1,693.46,218.87Z"/><path class="cls-13" d="M693.25,218.69l1.34-.77.1.08-1.34.77Z"/><path class="cls-13" d="M693,218.53l1.34-.78.1.08-1.34.77Z"/><path class="cls-13" d="M692.78,218.38l1.34-.78,0,0,.07,0-1.34.77-.07,0Z"/><path class="cls-13" d="M692.5,218.24l1.35-.77.12.05-1.34.78Z"/><path class="cls-13" d="M692.17,218.14l1.34-.78.16,0-1.34.78Z"/><path class="cls-13" d="M691.71,218.1l1.34-.77a.89.89,0,0,1,.23,0l-1.34.77Z"/><path class="cls-14" d="M693,224.44l1.16-.67a1.54,1.54,0,0,0,.65-1.42,4.86,4.86,0,0,0-2.2-3.8,1.54,1.54,0,0,0-1.55-.16l-1.17.68Z"/><path class="cls-13" d="M689.2,220.49c0-1.4,1-2,2.2-1.27a4.85,4.85,0,0,1,2.19,3.8c0,1.4-1,2-2.19,1.27A4.83,4.83,0,0,1,689.2,220.49Z"/><path class="cls-14" d="M691.9,225.05l.85-.5a1.54,1.54,0,0,0,.65-1.42,4.86,4.86,0,0,0-2.2-3.8,1.53,1.53,0,0,0-1.55-.15l-.85.49Z"/><path class="cls-13" d="M688.16,221.09c0-1.4,1-2,2.19-1.27a4.86,4.86,0,0,1,2.19,3.8c0,1.4-1,2-2.19,1.27A4.85,4.85,0,0,1,688.16,221.09Z"/><path class="cls-13" d="M692.36,224.53l.86-.49-.12.2-.85.49A1.28,1.28,0,0,0,692.36,224.53Z"/><path class="cls-13" d="M692.49,224.16l.85-.49a.83.83,0,0,1,0,.15l-.85.5S692.48,224.22,692.49,224.16Z"/><path class="cls-13" d="M692.54,223.84l.85-.49s0,.09,0,.14l-.86.49S692.53,223.89,692.54,223.84Z"/><path class="cls-13" d="M692.54,223.54l.86-.49v.13l-.85.49s0,0,0,0S692.54,223.57,692.54,223.54Z"/><path class="cls-13" d="M692.52,223.26l.86-.5s0,.09,0,.13l-.85.49S692.53,223.3,692.52,223.26Z"/><path class="cls-13" d="M692.48,223l.86-.49a.5.5,0,0,0,0,.12l-.86.49A.5.5,0,0,0,692.48,223Z"/><path class="cls-13" d="M692.42,222.72l.86-.49a.52.52,0,0,1,0,.11l-.85.5Z"/><path class="cls-13" d="M692.35,222.47l.85-.49a.36.36,0,0,1,0,.11l-.85.49A.49.49,0,0,1,692.35,222.47Z"/><path class="cls-13" d="M692.27,222.22l.85-.49s0,.07,0,.11l-.86.49Z"/><path class="cls-13" d="M692.17,222l.85-.49,0,.1-.85.5Z"/><path class="cls-13" d="M692.06,221.75l.85-.49.05.1-.85.49S692.08,221.78,692.06,221.75Z"/><path class="cls-13" d="M691.94,221.52l.85-.49a.47.47,0,0,1,.05.1l-.85.49Z"/><path class="cls-13" d="M691.81,221.3l.85-.49.06.1-.85.49Z"/><path class="cls-13" d="M691.67,221.09l.85-.49.06.09-.85.49Z"/><path class="cls-13" d="M691.52,220.88l.85-.49.07.09-.86.49Z"/><path class="cls-13" d="M691.35,220.68l.85-.49.08.09-.85.49Z"/><path class="cls-13" d="M691.18,220.48,692,220l.08.09-.85.49Z"/><path class="cls-13" d="M691,220.3l.85-.49.08.08-.85.49Z"/><path class="cls-13" d="M690.78,220.12l.86-.49.09.08-.86.49Z"/><path class="cls-13" d="M690.56,220l.85-.49.1.07-.85.5Z"/><path class="cls-13" d="M690.31,219.8l.85-.49,0,0,.08,0-.86.5-.07-.05Z"/><path class="cls-13" d="M690,219.67l.86-.5.12.06-.85.49Z"/><path class="cls-13" d="M689.7,219.56l.85-.49.16,0-.86.49Z"/><path class="cls-13" d="M689.24,219.53l.86-.49h.23l-.86.49Z"/><path class="cls-14" d="M690.81,225.84l.81-.47a1.61,1.61,0,0,0,.67-1.48,5.08,5.08,0,0,0-2.29-4,1.64,1.64,0,0,0-1.63-.16l-.81.47Z"/><path class="cls-13" d="M686.89,221.71c0-1.47,1-2.06,2.3-1.33a5.08,5.08,0,0,1,2.29,4c0,1.47-1,2.06-2.29,1.33A5.06,5.06,0,0,1,686.89,221.71Z"/><path class="cls-15" d="M689.16,220.65a4.54,4.54,0,0,1,2.08,3.56v0c0,1.28-.94,1.78-2,1.14a4.53,4.53,0,0,1-2.05-3.55C687.14,220.55,688,220,689.16,220.65Z"/><path class="cls-13" d="M689.16,220.65a4.54,4.54,0,0,1,2.08,3.56v0c-.11,1.07-.92,1.47-1.91.9a4.24,4.24,0,0,1-1.92-3.32C687.41,220.69,688.18,220.18,689.16,220.65Z"/><path class="cls-14" d="M688.46,221.09a1,1,0,0,1,.73.1,3.47,3.47,0,0,1,1.59,2.73,1.09,1.09,0,0,1-.28.71.93.93,0,0,1-1.18,0,3.23,3.23,0,0,1-1.46-2.53C687.86,221.55,688.09,221.19,688.46,221.09Z"/><path d="M688.46,221.09a1,1,0,0,1,.73.1,3.47,3.47,0,0,1,1.59,2.73,1.09,1.09,0,0,1-.28.71,1.1,1.1,0,0,1-.86-.17,3.24,3.24,0,0,1-1.47-2.54A1.14,1.14,0,0,1,688.46,221.09Z"/><path class="cls-15" d="M682.09,219.5a.54.54,0,0,1,.33-.5l1.35-.78,1-.59a2.46,2.46,0,0,1,2.21,0,.8.8,0,0,1,.47.65v1.35l3,1.76v.75l.76.44a.57.57,0,0,1,.33.47l0,5.51a.57.57,0,0,1-.34.47l-.53.31a1.78,1.78,0,0,1-1.62,0l-.43-.25-4.85-2.82-1-.55-.46-.27a.57.57,0,0,1-.33-.47l0-5.51A0,0,0,0,0,682.09,219.5Z"/><g class="cls-1"><path class="cls-13" d="M687,218.92a.75.75,0,0,0,.46-.64l0,5.51a.77.77,0,0,1-.46.64l-.38.22v-5.51Z"/><polygon class="cls-13" points="690.03 221.87 690.05 227.38 690.52 226.9 690.5 221.39 690.03 221.87"/><path class="cls-13" d="M682.42,219.94l.46.27,1,.55,4.86,2.82.42.25a1.78,1.78,0,0,0,1.62,0l.54-.31a.57.57,0,0,0,.33-.47l0,5.51a.57.57,0,0,1-.34.47l-.53.31a1.78,1.78,0,0,1-1.62,0l-.43-.25-4.85-2.82-1-.55-.46-.27a.57.57,0,0,1-.33-.47l0-5.51A.57.57,0,0,0,682.42,219.94Z"/><path class="cls-15" d="M682.42,219a.5.5,0,0,0,0,.94l.46.27,1,.55,4.86,2.82.42.25a1.78,1.78,0,0,0,1.62,0l.54-.31a.5.5,0,0,0,0-.94l-1.24-.72.47-.47-3.86-2.25.37-.22a.67.67,0,0,0,0-1.28,2.47,2.47,0,0,0-2.23,0l-1,.59Z"/></g><g class="cls-1"><path class="cls-13" d="M687.7,222l.94-.07,1.11-1.13v.6l-1.11,1.14-.94.07L685,221v-.61Z"/><path class="cls-20" d="M685.08,219.89c-.05.22-.08.32-.13.54L687.7,222l.94-.07,1.11-1.13c0-.16-.06-.26-.09-.42l-1.92-1.11-.72,0Z"/></g><path class="cls-13" d="M684.21,219.24v.35a.31.31,0,0,1-.17.25,1,1,0,0,1-.87,0,.31.31,0,0,1-.18-.25v-.35Z"/><path class="cls-21" d="M683.17,219c-.24.13-.24.36,0,.5a1,1,0,0,0,.87,0,.27.27,0,0,0,0-.5A1,1,0,0,0,683.17,219Z"/><path class="cls-13" d="M686.86,217.62v.59a.5.5,0,0,1-.29.41,1.59,1.59,0,0,1-1.44,0,.49.49,0,0,1-.3-.41v-.59Z"/><ellipse class="cls-14" cx="685.85" cy="217.62" rx="1.01" ry="0.59"/><path class="cls-21" d="M685.44,217.38c-.23.14-.23.35,0,.48a.91.91,0,0,0,.82,0c.23-.13.23-.34,0-.48A.91.91,0,0,0,685.44,217.38Z"/><path class="cls-13" d="M685.61,219.14c-.1.06-.1.15,0,.21a.38.38,0,0,0,.36,0c.1-.06.1-.15,0-.21A.45.45,0,0,0,685.61,219.14Z"/><path class="cls-13" d="M690.91,222.55V223a.35.35,0,0,1-.21.29,1.06,1.06,0,0,1-1,0,.35.35,0,0,1-.21-.29v-.41Z"/><path class="cls-14" d="M689.69,222.26a.31.31,0,0,0,0,.58,1.12,1.12,0,0,0,1,0,.31.31,0,0,0,0-.58A1.12,1.12,0,0,0,689.69,222.26Z"/><path class="cls-13" d="M690.8,222.14v.35a.31.31,0,0,1-.18.24.91.91,0,0,1-.85,0,.31.31,0,0,1-.18-.24v-.35Z"/><ellipse class="cls-14" cx="690.2" cy="222.14" rx="0.6" ry="0.35"/><path class="cls-13" d="M690,222c-.1.06-.1.15,0,.21a.36.36,0,0,0,.35,0c.1-.06.1-.15,0-.21A.43.43,0,0,0,690,222Z"/><path class="cls-15" d="M691.26,227a.59.59,0,0,1-.26.45.16.16,0,0,1-.26-.15v-2.17a.57.57,0,0,1,.26-.44c.14-.09.26,0,.26.14Z"/><path class="cls-22" d="M683.43,222.05v2.53a.81.81,0,0,0,.36.64l3.39,1.95.36.57.42-.24a.27.27,0,0,0,.1-.24v-2.91a.81.81,0,0,0-.36-.63l-3.91-2.25a.24.24,0,0,0-.25,0l-.42.24Z"/><path class="cls-13" d="M683.38,221.71l3.9,2.25a.8.8,0,0,1,.37.63v2.91c0,.23-.16.33-.37.21l-3.9-2.26a.79.79,0,0,1-.37-.63v-2.9C683,221.68,683.18,221.59,683.38,221.71Z"/><path class="cls-22" d="M683.41,222.08l.05,0,3.68,2.12a.59.59,0,0,1,.15.16.45.45,0,0,1,.06.21v2.71s-.05.08-.08.06l-3.74-2.16a.47.47,0,0,1-.15-.16.55.55,0,0,1-.07-.22v-2.64A.1.1,0,0,1,683.41,222.08Z"/><path class="cls-19" d="M683.41,222.08l.05,0,3.68,2.12a.59.59,0,0,1,.15.16.45.45,0,0,1,.06.21v2.71l-3.73-2.15a.51.51,0,0,1-.15-.17.47.47,0,0,1-.07-.21v-2.64S683.41,222.1,683.41,222.08Z"/><path class="cls-23" d="M685.24,226l2-1.1v-.28a.41.41,0,0,0,0-.16.38.38,0,0,0-.11-.13l-.7-.4-2.3,1.41Z"/><path class="cls-23" d="M683.67,225.06l.25.14,2.25-1.43-.41-.23L683.58,225A.37.37,0,0,0,683.67,225.06Z"/><path class="cls-14" d="M686.25,218.2a1.57,1.57,0,0,1,.71-1.15l.17-.1,2.17,1.25v2.51l-1,.59-2.17-1.25Z"/><g class="cls-1"><path class="cls-13" d="M686.25,218.2l-.15,1.85,2.17,1.25.15-1.86a1.59,1.59,0,0,1,.71-1.15l.17-.09L687.13,217l-.17.1A1.57,1.57,0,0,0,686.25,218.2Z"/><path class="cls-14" d="M688.27,221.3l.15-1.86a1.59,1.59,0,0,1,.71-1.15l.17-.09v2.51Z"/></g><path class="cls-24" d="M679.78,221.92a9.87,9.87,0,0,1,.9-3.52,3.56,3.56,0,0,1,2.24-.89l2,.69c.55.34.24.91-.39.79l-1.64-.36s-.17,2.09-.84,2.72A3.92,3.92,0,0,1,679.78,221.92Z"/><path class="cls-17" d="M657.05,225.05l12.46.79,10.34-4.37c1.43.28,1.54,2.9,1.2,3.58a24.37,24.37,0,0,1-10.28,8.77l-13.37.6Z"/><path d="M674.37,289.51s.67,1.56,3.27,2.16,3.47-2.53,4.47-5.44c3.16-2.28,3.51-4.42,4.39-7.89,0-2.68-3-3.43-4.76-1.27l-2.38,2.76-2.91,2.23Z"/><path class="cls-14" d="M676.92,287.59a3.64,3.64,0,0,1-2.06,2c-3.31,1.51-12.58-7.14-14-10.72L652.48,272l2.25-2.36,3.5-3.67,4.87-5.54,1.19,5.94,2.79,5.73c3.31,3.84,6.23,8.16,9.63,9.53C678.29,283.1,678.07,285.61,676.92,287.59Z"/><path class="cls-14" d="M664.82,261.45c-.5.68-.5.68-.92,1.23l-.75,3L662,267.1l-1,.5-1.21.55-5,1.45-3.64,1c-.43-.16-.85-.33-1.25-.52-5-2.32-7.73-6.71-6-11.92a15.9,15.9,0,0,1,3.1-5.13s10.8,2.52,15.6,5.79A4.86,4.86,0,0,1,664.82,261.45Z"/><path class="cls-25" d="M676.92,287.59a3.59,3.59,0,0,1-2.06,2c-3.31,1.51-12.58-7.14-14-10.72L652.48,272l-1.39-1.32c-5.76-2.13-9.12-6.81-7.19-12.45.79,5.38,6.37,13.87,14.49,10.29l6,6.46C666.71,281.93,670.13,287.3,676.92,287.59Z"/><path class="cls-24" d="M696.28,222.52l-.51-1.18-1.31-.88c-.52-.36-1.05.08-.47.65l.7.81-.79,1.52a5.38,5.38,0,0,0-.76,2.4l-.11,1.49c1.39.92,3-1.4,4.33-3.07l.73-2.73-.57.32Z"/><polygon class="cls-24" points="660.7 228.3 665.29 221.59 672.93 224.97 669.43 230.51 660.7 228.3"/><path class="cls-24" d="M670.38,227.35a1.51,1.51,0,0,0,2.55.39c1.61-1.46,4.23-6.27,3.36-10.13s-7.37,1.38-7.37,1.38Z"/><path d="M663.58,224.17a22.07,22.07,0,0,1,5.67,2.32,2.25,2.25,0,0,0,2.23-.23l.88-1.07.33-1.49,1.56-.63-.11-1.6a5.06,5.06,0,0,0,2.32-1.68,4.53,4.53,0,0,0,.34-3.09c-.68-2.54-3.89-4.4-7.37-4.16C663.38,212.87,661.89,219.36,663.58,224.17Z"/><path class="cls-24" d="M673.56,223a1.41,1.41,0,0,0-.07-.54.74.74,0,0,0-.41-.42.89.89,0,0,0-1,.42,1.72,1.72,0,0,0-.07,1c0,.24.07.49.1.74a1.44,1.44,0,0,0,.18.61.65.65,0,0,0,.61.28.64.64,0,0,0,.41-.28,1.22,1.22,0,0,0,.13-.45A9.2,9.2,0,0,0,673.56,223Z"/><path d="M679.28,246.91h-.2c-2.71-.12-3.33-3.42-4-7.25-.64-3.39-1.36-7.24-3.69-9.24-3.27-2.79-7.94-5.86-11.59-4.6a.43.43,0,0,1-.54-.26.43.43,0,0,1,.26-.53c3.19-1.1,7.49.54,12.41,4.76,2.56,2.19,3.31,6.19,4,9.72s1.21,6.47,3.26,6.56c1.56.07,3.18-.84,4.82-2.67,4.32-4.85,7.07-14.21,6.64-16.94a.43.43,0,0,1,.35-.48.42.42,0,0,1,.48.35c.5,3.19-2.49,12.75-6.85,17.63C682.81,245.92,681,246.91,679.28,246.91Z"/><path class="cls-26" d="M677.18,232.66a95.9,95.9,0,0,1-3,10.6c-.27.81-.52,1.53-.72,2.12-.37,1.08-.78,2.16-1.22,3.23l-.27.62c-.16.37-.33.74-.5,1.11a60.55,60.55,0,0,1-5.74,9.82l-.92,1.29a5.37,5.37,0,0,0-2.39-2.28l-.74-.43c-3.6-1.94-9.58-3.84-14.69-5.67-.86-6.34,2.58-18.51,5.49-25.22,2.77-4.06,7-2.92,10.13-2.36,0,0,4.88,1.2,7.53,4C670.58,229.91,677.18,232.66,677.18,232.66Z"/><path class="cls-27" d="M674.19,243.26c-.37,1.24-.81,2.45-1.27,3.66-.22.56-.44,1.13-.67,1.69l-.27.62c-.16.37-.33.74-.5,1.11a65.52,65.52,0,0,1-5.74,9.82l-.92,1.29c-.33-.91-1.48-1.81-3.13-2.71,5.68-4.94,8.91-10.14,9.59-18.43.76,2.52,2.11-.36,3.23,1.77C674.41,242.47,674.3,242.87,674.19,243.26Z"/><path class="cls-14" d="M619.75,303.44a11.42,11.42,0,0,0,1.59.61,4.11,4.11,0,0,0,.54.13c6.5-2.75,13.41-2.17,19.55-3.29a23.4,23.4,0,0,0,4.63-1.32l.05-.06a64.33,64.33,0,0,0,15.25-23.94c.59-1.66,1.06-3.35,1.57-5,1-3.18.72-6.73,1-7.88l-2.57-.51-1.55-.31-6.37,1.07-3.57,7.19-10.19,20.51-17,3.28C619,294.14,615.26,301.2,619.75,303.44Z"/><path class="cls-25" d="M664.82,261.45c-.5.68-.5.68-.92,1.23-.26,1.15,0,4.69-1,7.88-.51,1.66-1,3.35-1.57,5a64.62,64.62,0,0,1-15.24,23.95,33.31,33.31,0,0,1-4.69,1.37c-6.14,1.12-13,.53-19.55,3.29a4.11,4.11,0,0,1-.54-.13l1.38-3c4.86-2.71,13.54-2.93,23.11-4.09,8.26-8.09,13.08-18,15.13-29.37l.24-1.47a17.68,17.68,0,0,0,.12-4,9.28,9.28,0,0,1,1.11-3A5.37,5.37,0,0,1,664.82,261.45Z"/><path d="M622.64,293.76a4.08,4.08,0,0,0-3.42-.33c-1.43.94-2,3-2.23,5.36v.67s-2.8,5.58-2.68,8.41c.1,2.51,1,3.52,2.23,4,2.26.9,4.61-.32,5.29-5.95l2.23-3.27c1.26-1.61,1.86-6.49.48-7.62Z"/><path class="cls-26" d="M695.72,226.4c0,4.34-2,9.47-4.43,14.8-4.66,2.32-13.07,2.05-20.34,1.81-5.05-.76-3.35-12.42,3.47-11.51,4.39,1.79,8.68,1.76,13,2.74l4.85-8.09C694,225.37,694.89,225.62,695.72,226.4Z"/><path class="cls-13" d="M585.55,106.39a4.92,4.92,0,0,0-4.48,0l-8.78,5.1a1.59,1.59,0,0,0-.92,1.3s-.06,21-.06,21a1.6,1.6,0,0,0,.94,1.31l4.22,2.43a4.92,4.92,0,0,0,4.48,0l2.35-1.36,4.52,2.61,8.66-5,.06-21Z"/><g class="cls-1"><path class="cls-13" d="M581,116.53a5,5,0,0,1-4.48,0l-4.23-2.44a1.6,1.6,0,0,1-.93-1.31l-.06,21a1.6,1.6,0,0,0,.94,1.31l4.22,2.43a4.92,4.92,0,0,0,4.48,0l2.35-1.36.06-21Z"/><polygon class="cls-28" points="587.88 117.77 587.82 138.77 583.3 136.16 583.36 115.16 587.88 117.77"/><polygon class="cls-14" points="596.54 112.74 596.48 133.73 587.82 138.77 587.88 117.77 596.54 112.74"/><path class="cls-15" d="M596.54,112.74l-8.66,5-4.52-2.61L581,116.53a5,5,0,0,1-4.48,0l-4.23-2.44a1.38,1.38,0,0,1,0-2.6l8.78-5.1a4.92,4.92,0,0,1,4.48,0Z"/></g><path class="cls-14" d="M611.48,118.2l-15.5-9a1.82,1.82,0,0,0-1.83.18l-2.61,1.51a17.5,17.5,0,0,0-7.92,13.71v13.17a1.87,1.87,0,0,0,.77,1.7l15.51,8.95Z"/><path class="cls-28" d="M609.61,143.75l-7.86,4.53c-1.45.84-2.62.16-2.62-1.51V133.6A17.49,17.49,0,0,1,607,119.89l2.61-1.51c1.43-.82,2.59-.15,2.59,1.49V139.2A5.82,5.82,0,0,1,609.61,143.75Z"/><path class="cls-16" d="M584.77,138.76c-.12-.07-.26-.33-.26-.82V124.77a16.4,16.4,0,0,1,7.41-12.84l2.61-1.5a1.39,1.39,0,0,1,.65-.22.43.43,0,0,1,.17,0l13.23,7.65-2.17,1.25A18.35,18.35,0,0,0,598,133.72V146.4Z"/><path class="cls-13" d="M620.46,127.43a1.54,1.54,0,0,0-.93-1.4l-8.32-4.8-8.66,5-.06,21,8.32,4.81a5,5,0,0,0,4.48,0l4.2-2.44a1.58,1.58,0,0,0,.92-1.29l.06-21S620.46,127.4,620.46,127.43Z"/><g class="cls-1"><path class="cls-13" d="M619.55,128.63l-4.2,2.44a4.92,4.92,0,0,1-4.48,0l-8.32-4.8-.06,21,8.32,4.81a5,5,0,0,0,4.48,0l4.2-2.44a1.58,1.58,0,0,0,.92-1.29l.06-21A1.58,1.58,0,0,1,619.55,128.63Z"/><path class="cls-15" d="M619.53,126c1.24.72,1.25,1.88,0,2.6l-4.2,2.44a4.92,4.92,0,0,1-4.48,0l-8.32-4.8,8.66-5Z"/></g><path class="cls-21" d="M553.59,138.29l2.91-.08a1.78,1.78,0,0,1-.43,2.8l-4.69,2.76a2.91,2.91,0,0,0-1.46,2.68,13.91,13.91,0,0,0,.9,4.08,2.88,2.88,0,0,0,2.87,1.87l3.59-.22a2,2,0,0,1,1.71,3l-1.7,2.35a2.47,2.47,0,0,0,.21,3.19,8.48,8.48,0,0,0,10.3,1.43l4.55-5.48-9-18.56A22.83,22.83,0,0,0,553.59,138.29Z"/><path class="cls-29" d="M592.53,144l2.81-1.63c1.31-.75,2.13-2.38,2.13-4.69a16,16,0,0,0-7.25-12.55c-2-1.15-3.81-1.26-5.13-.51l-2.81,1.63Z"/><path class="cls-13" d="M580.16,130.92c0-4.62,3.24-6.49,7.24-4.18a16,16,0,0,1,7.25,12.55c0,4.62-3.24,6.49-7.25,4.18A16,16,0,0,1,580.16,130.92Z"/><path class="cls-14" d="M587.41,147.18l4.52-2.61c1.34-.77,2.17-2.43,2.17-4.79A16.35,16.35,0,0,0,586.7,127c-2-1.18-3.89-1.29-5.23-.51L577,129.06Z"/><path class="cls-19" d="M574.78,133.85c0-4.72,3.31-6.63,7.4-4.28a16.35,16.35,0,0,1,7.4,12.82c0,4.72-3.31,6.63-7.4,4.27A16.33,16.33,0,0,1,574.78,133.85Z"/><path class="cls-13" d="M589,145.45l4.52-2.61a5.22,5.22,0,0,1-.39.66l-4.52,2.61A5.22,5.22,0,0,0,589,145.45Z"/><path class="cls-13" d="M589.39,144.21l4.53-2.62c0,.18-.09.36-.14.52l-4.52,2.61A3.8,3.8,0,0,0,589.39,144.21Z"/><path class="cls-13" d="M589.55,143.12l4.52-2.61a3.42,3.42,0,0,1,0,.46l-4.52,2.61C589.53,143.43,589.54,143.28,589.55,143.12Z"/><path class="cls-13" d="M589.58,142.1l4.52-2.61c0,.1,0,.19,0,.29s0,.1,0,.15l-4.52,2.61a.75.75,0,0,0,0-.15A2.81,2.81,0,0,0,589.58,142.1Z"/><path class="cls-13" d="M589.51,141.15l4.52-2.61c0,.14,0,.27,0,.41l-4.52,2.61C589.54,141.42,589.53,141.29,589.51,141.15Z"/><path class="cls-13" d="M589.37,140.23l4.52-2.61c0,.14.05.27.07.4l-4.52,2.61C589.42,140.5,589.4,140.36,589.37,140.23Z"/><path class="cls-13" d="M589.17,139.35l4.52-2.61c0,.12.07.25.1.38l-4.52,2.61C589.24,139.6,589.21,139.47,589.17,139.35Z"/><path class="cls-13" d="M588.93,138.49l4.52-2.61c0,.13.08.25.11.37L589,138.86C589,138.74,589,138.62,588.93,138.49Z"/><path class="cls-13" d="M588.64,137.66l4.52-2.61c.05.13.09.24.13.37l-4.52,2.6C588.73,137.9,588.69,137.78,588.64,137.66Z"/><path class="cls-13" d="M588.31,136.85l4.52-2.61.15.35-4.52,2.61Z"/><path class="cls-13" d="M587.94,136.07l4.52-2.61c.06.12.12.23.17.34l-4.52,2.61C588.05,136.3,588,136.19,587.94,136.07Z"/><path class="cls-13" d="M587.54,135.31l4.52-2.61.18.33-4.52,2.61Z"/><path class="cls-13" d="M587.1,134.56l4.52-2.61.19.33-4.52,2.61Z"/><path class="cls-13" d="M586.62,133.84l4.52-2.61c.08.1.14.21.22.32l-4.52,2.61Z"/><path class="cls-13" d="M586.11,133.14l4.52-2.61.23.3-4.52,2.61Z"/><path class="cls-13" d="M585.56,132.46l4.52-2.61a3.61,3.61,0,0,1,.25.3l-4.52,2.61A3.61,3.61,0,0,0,585.56,132.46Z"/><path class="cls-13" d="M585,131.8l4.52-2.61c.09.1.18.19.26.29l-4.52,2.61C585.15,132,585.06,131.9,585,131.8Z"/><path class="cls-13" d="M584.33,131.18l4.52-2.61.29.27-4.52,2.61Z"/><path class="cls-13" d="M583.64,130.58l4.52-2.61.31.26L584,130.84Z"/><path class="cls-13" d="M582.88,130l4.52-2.61.34.25-4.52,2.61Z"/><path class="cls-13" d="M582.05,129.5l4.52-2.61.13.07.25.15-4.52,2.61-.25-.15Z"/><path class="cls-13" d="M581.12,129l4.52-2.61a4,4,0,0,1,.42.2l-4.52,2.61Z"/><path class="cls-13" d="M580,128.69l4.52-2.61a4.84,4.84,0,0,1,.51.14l-4.52,2.61A4.84,4.84,0,0,0,580,128.69Z"/><path class="cls-13" d="M578.45,128.59,583,126a4,4,0,0,1,.78,0l-4.53,2.61A3.94,3.94,0,0,0,578.45,128.59Z"/><path class="cls-13" d="M582.33,151.07l4.24-2.45c1.44-.83,2.34-2.62,2.34-5.17a17.65,17.65,0,0,0-8-13.82c-2.21-1.28-4.2-1.4-5.65-.56L571,131.51Z"/><path class="cls-13" d="M568.7,136.68c0-5.09,3.58-7.15,8-4.61a17.65,17.65,0,0,1,8,13.83c0,5.09-3.57,7.15-8,4.61S568.7,141.77,568.7,136.68Z"/><path class="cls-14" d="M578.53,153.27l3.1-1.8c1.44-.83,2.34-2.62,2.34-5.16a17.63,17.63,0,0,0-8-13.83c-2.2-1.27-4.2-1.39-5.64-.56l-3.1,1.79Z"/><path class="cls-13" d="M564.9,138.88c0-5.09,3.57-7.16,8-4.61a17.65,17.65,0,0,1,8,13.83c0,5.09-3.57,7.15-8,4.61A17.65,17.65,0,0,1,564.9,138.88Z"/><path class="cls-13" d="M580.2,151.4l3.11-1.8a4.57,4.57,0,0,1-.43.72l-3.1,1.79A3.8,3.8,0,0,0,580.2,151.4Z"/><path class="cls-13" d="M580.66,150.06l3.11-1.8c0,.2-.1.38-.15.56l-3.11,1.79A4.94,4.94,0,0,0,580.66,150.06Z"/><path class="cls-13" d="M580.84,148.88l3.1-1.79c0,.17,0,.34-.05.5l-3.11,1.79A4,4,0,0,0,580.84,148.88Z"/><path class="cls-13" d="M580.86,147.79,584,146c0,.1,0,.2,0,.3v.17l-3.1,1.79v-.16C580.87,148,580.87,147.89,580.86,147.79Z"/><path class="cls-13" d="M580.79,146.76l3.1-1.79c0,.14,0,.29,0,.44l-3.1,1.79C580.82,147.05,580.81,146.91,580.79,146.76Z"/><path class="cls-13" d="M580.64,145.77l3.1-1.79c0,.14,0,.28.08.43l-3.11,1.79C580.69,146.05,580.67,145.91,580.64,145.77Z"/><path class="cls-13" d="M580.43,144.81l3.1-1.79c0,.14.07.28.1.41l-3.1,1.8C580.5,145.09,580.46,145,580.43,144.81Z"/><path class="cls-13" d="M580.16,143.89l3.1-1.79c0,.13.09.27.13.4l-3.1,1.79C580.25,144.16,580.21,144,580.16,143.89Z"/><path class="cls-13" d="M579.85,143l3.1-1.8c0,.14.1.26.14.4l-3.1,1.79C580,143.26,579.9,143.13,579.85,143Z"/><path class="cls-13" d="M579.49,142.12l3.11-1.79c0,.13.1.26.16.38l-3.1,1.79C579.6,142.38,579.55,142.25,579.49,142.12Z"/><path class="cls-13" d="M579.1,141.28l3.1-1.79.18.37-3.1,1.79Z"/><path class="cls-13" d="M578.66,140.46l3.1-1.8.2.36-3.1,1.79C578.79,140.7,578.73,140.57,578.66,140.46Z"/><path class="cls-13" d="M578.18,139.65l3.11-1.79.21.35L578.4,140Z"/><path class="cls-13" d="M577.67,138.87l3.1-1.79a4,4,0,0,1,.23.34l-3.1,1.79Z"/><path class="cls-13" d="M577.12,138.11l3.1-1.79.25.33-3.1,1.8C577.29,138.33,577.2,138.22,577.12,138.11Z"/><path class="cls-13" d="M576.53,137.38l3.1-1.79.27.32-3.11,1.79C576.71,137.59,576.62,137.49,576.53,137.38Z"/><path class="cls-13" d="M575.89,136.67l3.1-1.79.29.31L576.17,137Z"/><path class="cls-13" d="M575.2,136l3.1-1.79.31.29-3.1,1.79Z"/><path class="cls-13" d="M574.46,135.35l3.1-1.79.33.28-3.1,1.79Z"/><path class="cls-13" d="M573.64,134.75l3.1-1.8c.13.09.25.17.37.27L574,135Z"/><path class="cls-13" d="M572.74,134.19l3.1-1.79.15.08a2.26,2.26,0,0,1,.26.16l-3.1,1.79-.27-.16Z"/><path class="cls-13" d="M571.73,133.7l3.1-1.79.46.2-3.1,1.79Z"/><path class="cls-13" d="M570.52,133.32l3.11-1.79a4.25,4.25,0,0,1,.56.15l-3.11,1.79C570.89,133.41,570.71,133.36,570.52,133.32Z"/><path class="cls-13" d="M568.85,133.21l3.11-1.8a4.58,4.58,0,0,1,.83,0l-3.1,1.8A3.92,3.92,0,0,0,568.85,133.21Z"/><path class="cls-14" d="M574.55,156.15l2.94-1.7c1.51-.87,2.45-2.74,2.45-5.4,0-5.32-3.74-11.79-8.35-14.45-2.3-1.33-4.39-1.46-5.9-.59l-2.94,1.7Z"/><path class="cls-13" d="M560.3,141.11c0-5.32,3.74-7.47,8.35-4.81s8.34,9.13,8.34,14.45-3.73,7.48-8.34,4.82S560.3,146.44,560.3,141.11Z"/><path class="cls-15" d="M568.54,137.26l.11.06a16.47,16.47,0,0,1,7.45,12.92,1,1,0,0,1,0,.17v.05c-.1,4.59-3.4,6.42-7.45,4.08a16.48,16.48,0,0,1-7.46-12.91C561.19,136.91,564.47,135,568.54,137.26Z"/><path class="cls-13" d="M568.54,137.26l.11.06a16.47,16.47,0,0,1,7.45,12.92,1,1,0,0,1,0,.17v.05c-.36,3.86-3.33,5.31-6.94,3.23a15.42,15.42,0,0,1-7-12.08C562.19,137.41,565,135.56,568.54,137.26Z"/><path class="cls-14" d="M566,138.87a3.85,3.85,0,0,1,2.68.38l.08,0a12.6,12.6,0,0,1,5.7,9.87.66.66,0,0,1,0,.14,3.83,3.83,0,0,1-1,2.46c-1,1-2.53,1.06-4.29,0a11.81,11.81,0,0,1-5.33-9.23C563.81,140.54,564.67,139.22,566,138.87Z"/><path d="M566,138.87a3.85,3.85,0,0,1,2.68.38l.08,0a12.6,12.6,0,0,1,5.7,9.87.66.66,0,0,1,0,.14,3.83,3.83,0,0,1-1,2.46,4.14,4.14,0,0,1-3.15-.62,11.78,11.78,0,0,1-5.32-9.23A4.17,4.17,0,0,1,566,138.87Z"/><path class="cls-12" d="M567.24,142.11c0,1.15-.43,2.09-1,2.09s-.95-.94-.95-2.09.42-2.09.95-2.09S567.24,141,567.24,142.11Z"/><path class="cls-12" d="M567.06,145.55c.1.39,0,.76-.27.82s-.52-.22-.61-.62,0-.77.28-.82S567,145.15,567.06,145.55Z"/><path class="cls-29" d="M553.46,138.3c3.73-.25,6.85,1.74,9.72,4.69a4.48,4.48,0,0,0,3.07,1.37l3.15-.26a2.56,2.56,0,0,1,2.52,1.43,2.63,2.63,0,0,1-.45,3l-1.92,2a3.39,3.39,0,0,0-.72,2.9,13.05,13.05,0,0,1-1,8.77l7.77-6.63c4-6.13-2.46-20.47-11.36-20.69Z"/><path class="cls-14" d="M574.19,129.76l1.13-.66a1.1,1.1,0,0,0,.47-1,3.5,3.5,0,0,0-1.58-2.74,1.13,1.13,0,0,0-1.12-.11l-1.14.66Z"/><path class="cls-15" d="M571.49,126.91c0-1,.71-1.42,1.58-.91a3.49,3.49,0,0,1,1.58,2.73c0,1-.71,1.42-1.58.92A3.51,3.51,0,0,1,571.49,126.91Z"/><path class="cls-13" d="M572.32,127.39c0-.48.34-.68.75-.44a1.66,1.66,0,0,1,.75,1.3c0,.48-.33.68-.75.44A1.67,1.67,0,0,1,572.32,127.39Z"/><path class="cls-14" d="M574.22,125l1.87-1.08a1.82,1.82,0,0,0,.76-1.68,5.76,5.76,0,0,0-2.6-4.5,1.84,1.84,0,0,0-1.84-.18l-1.87,1.08Z"/><path class="cls-13" d="M569.78,120.27c0-1.66,1.16-2.33,2.6-1.5a5.76,5.76,0,0,1,2.6,4.5c0,1.66-1.17,2.33-2.6,1.5A5.73,5.73,0,0,1,569.78,120.27Z"/><path class="cls-12" d="M604.15,130a1.58,1.58,0,0,1-.7-1.22c0-.45.32-.64.7-.41l5.18,3a1.55,1.55,0,0,1,.71,1.22c0,.45-.32.63-.71.41Z"/><path class="cls-14" d="M621,132.31v1.8a1.51,1.51,0,0,1-.89,1.25,4.81,4.81,0,0,1-4.34,0l-.09-.05v-1.8l2.06-1.2Z"/><path class="cls-22" d="M621,132.31a1.54,1.54,0,0,1-.89,1.26,4.81,4.81,0,0,1-4.34,0l-.09-.06,2.06-1.2L620,131l.1.05A1.54,1.54,0,0,1,621,132.31Z"/><path class="cls-14" d="M608.5,124.77v1.13a1.86,1.86,0,0,0,1.09,1.53,5.87,5.87,0,0,0,5.29,0A1.86,1.86,0,0,0,616,125.9v-1.13Z"/><path class="cls-13" d="M614.88,123.24c1.46.85,1.46,2.21,0,3.06a5.87,5.87,0,0,1-5.29,0c-1.46-.85-1.46-2.21,0-3.06A5.87,5.87,0,0,1,614.88,123.24Z"/><path class="cls-14" d="M609.75,121.58v2.94a1.23,1.23,0,0,0,.73,1,3.88,3.88,0,0,0,3.51,0,1.23,1.23,0,0,0,.73-1v-2.94Z"/><ellipse class="cls-13" cx="612.24" cy="121.58" rx="2.49" ry="1.44"/><path class="cls-15" d="M613.23,120.55a.6.6,0,0,1,0,1.14,2.16,2.16,0,0,1-2,0,.6.6,0,0,1,0-1.14A2.16,2.16,0,0,1,613.23,120.55Z"/><path class="cls-12" d="M612.55,127.51a.32.32,0,1,1-.31-.32A.31.31,0,0,1,612.55,127.51Z"/><path class="cls-12" d="M609.63,126.77c0,.17-.08.31-.18.31s-.19-.14-.19-.31.09-.32.19-.32S609.63,126.59,609.63,126.77Z"/><path class="cls-12" d="M615.15,126.77c0,.17-.08.31-.18.31s-.18-.14-.18-.31.08-.32.18-.32S615.15,126.59,615.15,126.77Z"/><path class="cls-13" d="M582.19,108.84a1,1,0,0,1,0,1.79l-4.91,2.83a3.45,3.45,0,0,1-3.1,0,1,1,0,0,1,0-1.79l4.91-2.83a3.39,3.39,0,0,1,3.1,0Z"/><path class="cls-14" d="M582.19,108.16a1,1,0,0,1,0,1.79l-4.91,2.83a3.45,3.45,0,0,1-3.1,0,1,1,0,0,1,0-1.79l4.91-2.83a3.45,3.45,0,0,1,3.1,0Z"/><path class="cls-13" d="M583.47,110.05v1.52a1.32,1.32,0,0,0,.77,1.08,4.17,4.17,0,0,0,3.74,0,1.3,1.3,0,0,0,.77-1.08v-1.52Z"/><path class="cls-21" d="M588,109a1.13,1.13,0,0,1,0,2.15,4.11,4.11,0,0,1-3.74,0,1.13,1.13,0,0,1,0-2.15A4.11,4.11,0,0,1,588,109Z"/><path class="cls-13" d="M578,113.85v.84a.71.71,0,0,0,.43.6,2.29,2.29,0,0,0,2.07,0,.73.73,0,0,0,.43-.6v-.84Z"/><path class="cls-13" d="M580.53,113.25a.63.63,0,0,1,0,1.2,2.29,2.29,0,0,1-2.07,0,.63.63,0,0,1,0-1.2A2.29,2.29,0,0,1,580.53,113.25Z"/><polygon class="cls-14" points="598.05 125.26 588.53 119.77 588.53 116.98 598.05 122.47 598.05 125.26"/><polygon class="cls-21" points="597.52 124.46 589.07 119.58 589.07 117.78 597.52 122.66 597.52 124.46"/><path class="cls-15" d="M598.05,125.26v-2.79l2.09-1.54A9.59,9.59,0,0,0,598.05,125.26Z"/><polygon class="cls-14" points="605.19 101.8 605.23 116.09 599.94 119.15 594.11 100.18 605.19 101.8"/><polygon class="cls-14" points="605.19 101.8 605.23 116.09 599.94 119.15 594.11 100.18 605.19 101.8"/><polygon class="cls-30" points="599.94 119.15 593.02 115.13 594.11 100.18 601.03 104.2 599.94 119.15"/><polygon class="cls-31" points="601.03 104.2 594.11 100.18 598.27 97.78 605.19 101.8 601.03 104.2"/><path class="cls-14" d="M611.59,106a3,3,0,0,0-1.27-2.79l-13.87-8.09a3,3,0,0,0-3.08.3l-5.75,3.32,0,8,13.88,8.09,7.52-4.34a5.1,5.1,0,0,0,2.55-4.42Z"/><g class="cls-1"><polygon class="cls-13" points="601.51 114.78 587.64 106.69 587.62 98.73 601.49 106.83 601.51 114.78"/><polygon class="cls-21" points="600.36 112 600.36 112.78 588.78 106.02 588.77 100.73 589.56 101.19 600.35 107.49 600.36 112"/><polygon class="cls-26" points="600.36 112 589.58 105.7 589.56 101.19 600.35 107.49 600.36 112"/><polygon class="cls-12" points="595.84 105.11 594.29 104.21 594.29 107.87 595.84 108.77 595.84 105.11"/><polygon class="cls-12" points="598.62 110.4 600.19 111.31 600.17 107.64 598.62 106.74 598.62 110.4"/><polygon class="cls-12" points="598 106.38 596.46 105.47 596.46 109.14 598 110.04 598 106.38"/><polygon class="cls-12" points="592.13 106.61 593.67 107.51 593.67 103.85 592.13 102.95 592.13 106.61"/><polygon class="cls-12" points="591.5 102.58 590.07 101.74 590.08 105.41 591.5 106.24 591.5 102.58"/><path class="cls-15" d="M596.45,95.11a3,3,0,0,0-3.08.3l-5.75,3.32,13.87,8.1,5.76-3.33a3.06,3.06,0,0,1,3.07-.3Z"/><path class="cls-14" d="M607.26,103.5c2.37-1.37,4.32-.25,4.33,2.49v.08a5,5,0,0,1-2.5,4.34l-7.57,4.37,0-8Z"/></g><line class="cls-4" x1="443.87" y1="130.85" x2="449.87" y2="130.85"/><line class="cls-32" x1="460.71" y1="130.85" x2="542.04" y2="130.85"/><line class="cls-4" x1="547.46" y1="130.85" x2="553.46" y2="130.85"/><line class="cls-4" x1="454.55" y1="253.07" x2="460.55" y2="253.07"/><line class="cls-33" x1="472.37" y1="253.07" x2="584.63" y2="253.07"/><line class="cls-4" x1="590.54" y1="253.07" x2="596.54" y2="253.07"/></g></g></svg>