<svg id="Camada_1" data-name="Camada 1" xmlns="http://www.w3.org/2000/svg" xmlns:xlink="http://www.w3.org/1999/xlink" viewBox="0 0 300 300"><defs><style>.cls-1{fill:#ac1257;stroke:#fff;stroke-miterlimit:10;stroke-width:3px;}.cls-2{fill:#fff;}</style></defs><circle class="cls-1" cx="150" cy="153.77" r="141.24"/><path class="cls-2" d="M158.37,191.35c-1.34,6.89-8,30-10.23,36.91H44.72V222c20.24-2,22-3.11,22-22v-88.3c0-18.9-2.23-20-20-21.79V83.7h59.61v6.23c-17.8,1.78-20.24,2.67-20.24,21.79v90.52c0,13.57,1.77,16.68,14.45,16.9.23,0,16.24.22,17.57.22,11.35,0,14.68-1.33,19.8-6.89,5.56-5.79,10.23-14.68,13.56-22.91Z"/><path class="cls-2" d="M256.67,87.84c-10.36,1.49-11.83,2.67-15.83,14.79C236,117.43,224.13,155,216,181.47h-5c-7.69-23.07-17.6-51.62-25.29-73.51-8.58,25.44-17.3,50.74-25,73.51h-4.89C148.4,156,140,128.37,132,102.49c-3.85-12-5.47-13.61-15.09-14.65V83.7h36.53v4.14c-10.94,1.19-11.24,2.82-9.17,10.21,5.77,20,11.69,39.64,17.76,60.5C170.14,135,179,109.29,186.56,85h4.73c8.29,25.15,16.57,48.52,25.15,73.67,6.21-19.68,14.64-46,17.9-58.87,2.21-8.58,1-10.5-11.54-12V83.7h33.87Z"/><image width="2289" height="2289" transform="translate(134.33 135.88) scale(0.05)" xlink:href="../../Downloads/kisspng-bts-k-pop-image-photograph-desktop-wallpaper-5d216e583f7683.06942028156247202426.png"/></svg>