<svg xmlns="http://www.w3.org/2000/svg" xmlns:xlink="http://www.w3.org/1999/xlink" viewBox="0 0 300 300"><defs><style>.cls-1{isolation:isolate;}.cls-2{fill:url(#Gradiente_sem_nome_2);}.cls-3{fill:url(#Gradiente_sem_nome_2-2);}.cls-4{fill:url(#Gradiente_sem_nome_3);}.cls-5{fill:#1e1e1c;}.cls-6{fill:#9e9d9c;}.cls-7{fill:#727070;}.cls-8{fill:#585857;}.cls-11,.cls-9{fill:#3d3d3b;}.cls-10{fill:#878787;}.cls-11,.cls-24,.cls-25,.cls-35,.cls-37{mix-blend-mode:multiply;}.cls-11,.cls-15,.cls-24,.cls-35,.cls-37{opacity:0.5;}.cls-12{fill:#2b2c2c;}.cls-13,.cls-15{fill:#fff;}.cls-14{fill:#b3b2b2;}.cls-16{fill:#101010;}.cls-17{fill:#191a18;}.cls-18{fill:#f7af77;}.cls-19{fill:url(#Gradiente_sem_nome_3-2);}.cls-20{fill:url(#Gradiente_sem_nome_3-3);}.cls-21{fill:#2f4b67;}.cls-22,.cls-25,.cls-37{fill:#40678b;}.cls-23{fill:url(#Gradiente_sem_nome_2-3);}.cls-24{fill:#e94c4a;}.cls-25{opacity:0.3;}.cls-26{fill:url(#Gradiente_sem_nome_2-4);}.cls-27{fill:#010101;}.cls-28{fill:url(#Gradiente_sem_nome_2-5);}.cls-29{fill:url(#Gradiente_sem_nome_2-6);}.cls-30{fill:url(#Gradiente_sem_nome_2-7);}.cls-31,.cls-35{fill:#f9ba7f;}.cls-32{fill:url(#Gradiente_sem_nome_5);}.cls-33{fill:#eda96c;}.cls-34{fill:url(#Gradiente_sem_nome_5-2);}.cls-36{fill:url(#Gradiente_sem_nome_2-8);}.cls-38{fill:url(#Gradiente_sem_nome_3-4);}.cls-39{fill:url(#Gradiente_sem_nome_3-5);}</style><linearGradient id="Gradiente_sem_nome_2" x1="69.64" y1="32.31" x2="120.91" y2="32.31" gradientUnits="userSpaceOnUse"><stop offset="0" stop-color="#f28e86"/><stop offset="0.22" stop-color="#e9418f"/><stop offset="1" stop-color="#574596"/></linearGradient><linearGradient id="Gradiente_sem_nome_2-2" x1="102.76" y1="572.39" x2="204.63" y2="619.61" gradientTransform="matrix(0.72, -0.69, -0.69, -0.72, 380.01, 576.66)" xlink:href="#Gradiente_sem_nome_2"/><linearGradient id="Gradiente_sem_nome_3" x1="192.51" y1="564.13" x2="188.55" y2="452.31" gradientTransform="matrix(0.53, 0.85, -0.85, 0.53, 417.73, -348.72)" gradientUnits="userSpaceOnUse"><stop offset="0" stop-color="#fff"/><stop offset="1" stop-color="#4e4193"/></linearGradient><linearGradient id="Gradiente_sem_nome_3-2" x1="76.77" y1="282.9" x2="105.44" y2="282.9" gradientTransform="matrix(1, 0, 0, 1, 0, 0)" xlink:href="#Gradiente_sem_nome_3"/><linearGradient id="Gradiente_sem_nome_3-3" x1="51.51" y1="270.93" x2="78.08" y2="270.93" gradientTransform="matrix(1, 0, 0, 1, 0, 0)" xlink:href="#Gradiente_sem_nome_3"/><linearGradient id="Gradiente_sem_nome_2-3" x1="58.31" y1="138.38" x2="104.58" y2="138.38" xlink:href="#Gradiente_sem_nome_2"/><linearGradient id="Gradiente_sem_nome_2-4" x1="95.02" y1="134.58" x2="141.64" y2="134.58" xlink:href="#Gradiente_sem_nome_2"/><linearGradient id="Gradiente_sem_nome_2-5" x1="74.57" y1="98.12" x2="79.8" y2="98.12" xlink:href="#Gradiente_sem_nome_2"/><linearGradient id="Gradiente_sem_nome_2-6" x1="88.18" y1="83.81" x2="106.07" y2="83.81" xlink:href="#Gradiente_sem_nome_2"/><linearGradient id="Gradiente_sem_nome_2-7" x1="73.19" y1="88.68" x2="97.96" y2="88.68" xlink:href="#Gradiente_sem_nome_2"/><linearGradient id="Gradiente_sem_nome_5" x1="205.69" y1="183.09" x2="223.99" y2="183.09" gradientUnits="userSpaceOnUse"><stop offset="0" stop-color="#ad1257"/><stop offset="0.25" stop-color="#a81256"/><stop offset="0.54" stop-color="#9a1252"/><stop offset="0.84" stop-color="#83134b"/><stop offset="1" stop-color="#741347"/></linearGradient><linearGradient id="Gradiente_sem_nome_5-2" x1="218.61" y1="201.21" x2="232.39" y2="201.21" xlink:href="#Gradiente_sem_nome_5"/><linearGradient id="Gradiente_sem_nome_2-8" x1="199.47" y1="119.63" x2="239.84" y2="119.63" xlink:href="#Gradiente_sem_nome_2"/><linearGradient id="Gradiente_sem_nome_3-4" x1="194.24" y1="62.39" x2="239.11" y2="62.39" gradientTransform="matrix(1, 0, 0, 1, 0, 0)" xlink:href="#Gradiente_sem_nome_3"/><linearGradient id="Gradiente_sem_nome_3-5" x1="200.7" y1="78.86" x2="238.08" y2="78.86" gradientTransform="matrix(1, 0, 0, 1, 0, 0)" xlink:href="#Gradiente_sem_nome_3"/></defs><g class="cls-1"><g id="Camada_1" data-name="Camada 1"><path class="cls-2" d="M95.28,58a25.64,25.64,0,1,1,25.63-25.64A25.67,25.67,0,0,1,95.28,58Zm0-51a25.34,25.34,0,1,0,25.34,25.34A25.37,25.37,0,0,0,95.28,7Z"/><path class="cls-3" d="M127.42,94.59c10-12.48,18.93-35,10.42-47.31C127.2,31.85,98.28,45.15,74.77,23.8,64.06,14.08,65.57,7.25,57.44,4.89,38.66-.57,4.75,28.33,2.28,62,1.8,68.61,1.78,85.41,13,99.27,37.69,129.79,101.42,126.93,127.42,94.59Z"/><path class="cls-4" d="M96.46,49.6c-1.67-8.71-31.31-15.88-41.13-5-7.23,8,1.57,20-6.32,28.09C41.76,80.12,31.34,73,21.63,81c-7.2,5.93-10.95,17.61-7.5,25.57,3.26,7.54,11.31,7.87,31.41,14.82C77.82,132.57,78.1,139,91.27,138.2c13.51-.82,33.25-8.78,38.14-26.17,4.16-14.78-3.65-31.91-14.94-39.12-10.4-6.64-22.71-4.2-24.26-10C88.88,58,97.41,54.57,96.46,49.6Z"/><path class="cls-5" d="M69.78,242.1c-2-.83-2.83.44-2.83.44l-1.45,3.59c-.21,1.2,3.38,2.36,4.91,1.18l1.27-3.18S72,243,69.78,242.1Z"/><path class="cls-5" d="M134.2,280.22c-1.71.2-2,1.34-2,1.34v3.55c.24,1.86,5.05,1.46,5.33.12l-.68-4.28S136.62,279.94,134.2,280.22Z"/><path class="cls-5" d="M158.19,228c-1,.44-1.79,1.06-1.73,2.2l.86,2.48c.73,1,3.37,1.29,4.66-.22a.85.85,0,0,0,.14-.84l-1.06-3C160.57,227.89,159.6,227.69,158.19,228Z"/><polygon class="cls-5" points="97.77 177.83 116.5 180.63 116.58 178.85 98.38 176.1 97.77 177.83"/><path class="cls-5" d="M117.89,150.22v36.13a1.61,1.61,0,0,0,1,1.33,5.06,5.06,0,0,0,4.58,0,1.61,1.61,0,0,0,1-1.33V150.22Z"/><path class="cls-6" d="M70.55,243.75c-.5,1-2.82-.16-2.71-1L81.1,210c1.34-1.23,2.25-1.06,2.67.73Z"/><path class="cls-7" d="M84.14,211.87c-.69,1.4-4-.24-3.84-1.41l16.2-40.11c1.9-1.75,3.19-1.51,3.78,1Z"/><path class="cls-8" d="M97.74,179.26c-.83,1.7-4.81-.24-4.64-1.66l17.27-43c2.27-2.11,3.83-1.84,4.57,1.21Z"/><path class="cls-6" d="M157.58,229.81c.43,1,2.82,0,2.77-.83L149.1,195.46c-1.26-1.31-2.18-1.19-2.71.56Z"/><path class="cls-7" d="M147.42,201.47c.61,1.44,4,0,3.93-1.18l-13.73-41c-1.79-1.86-3.09-1.7-3.84.79Z"/><path class="cls-8" d="M130,134.7h-5l12.47,38.13c.72,1.74,4.82,0,4.74-1.37Z"/><path class="cls-9" d="M124.4,180.28c1.81,1.05,1.81,2.74,0,3.78a7.18,7.18,0,0,1-6.54,0c-1.81-1-1.81-2.73,0-3.78A7.24,7.24,0,0,1,124.4,180.28Z"/><rect class="cls-9" x="116.5" y="178.34" width="9.26" height="3.84"/><path class="cls-7" d="M124.4,176.45c1.81,1,1.81,2.73,0,3.78a7.24,7.24,0,0,1-6.54,0c-1.81-1-1.81-2.74,0-3.78A7.18,7.18,0,0,1,124.4,176.45Z"/><path class="cls-5" d="M117.89,141.86V178a1.61,1.61,0,0,0,1,1.32,5.06,5.06,0,0,0,4.58,0,1.61,1.61,0,0,0,1-1.32V141.86Z"/><path class="cls-5" d="M130.85,132.07a2.65,2.65,0,0,0-1.7,1.92l1.43-.84V137a.83.83,0,0,0,.27,0,3,3,0,0,0,1.84-2.89C132.69,132.74,131.86,131.83,130.85,132.07Z"/><path class="cls-5" d="M124.63,128.8a2.65,2.65,0,0,0-1.7,1.92l1.43-.84v3.87a1.24,1.24,0,0,0,.27,0,3,3,0,0,0,1.84-2.89C126.47,129.47,125.64,128.56,124.63,128.8Z"/><rect class="cls-9" x="111.26" y="134.72" width="19.73" height="3.88"/><ellipse class="cls-9" cx="121.13" cy="138.6" rx="9.87" ry="5.63"/><ellipse class="cls-8" cx="121.13" cy="134.72" rx="9.87" ry="5.63"/><path class="cls-5" d="M115.22,131.67a2.48,2.48,0,0,0-4.35.18s-2.34,4.81-2.34,4.81a2.59,2.59,0,0,0-.26,1.11,2.5,2.5,0,0,0,2.5,2.5,2.54,2.54,0,0,0,.83-.15v-3.6l1.31-.05Z"/><path class="cls-5" d="M130.85,132.07a2.65,2.65,0,0,0-1.7,1.92l1.43-.84s1.06.44,2.11.95C132.69,132.74,131.86,131.83,130.85,132.07Z"/><polygon class="cls-5" points="129.15 134 122.57 130.38 124.27 129.18 125.57 128.93 131.72 132.16 129.15 134"/><path class="cls-5" d="M117.89,118v16.77a1.61,1.61,0,0,0,1,1.33,5.06,5.06,0,0,0,4.58,0,1.61,1.61,0,0,0,1-1.33V118Z"/><path class="cls-5" d="M121.28,183.38l4.17,8.29.11-3.45-2.75-5.49A.84.84,0,0,0,121.28,183.38Z"/><path class="cls-5" d="M127.78,175.66l9.05-5.42c.68-.28,1.29,1,.68,1.58l-9.33,5.53Z"/><path class="cls-6" d="M136.06,281.18c0,1.1-2.59,1.1-2.87.32l-3.3-43c.65-1.7,1.54-2,2.71-.54Z"/><path class="cls-7" d="M133.16,238.73c0,1.56-3.68,1.56-4.07.45L125.76,196c.92-2.4,2.19-2.76,3.85-.76Z"/><path class="cls-8" d="M130.19,196.84c0,1.89-4.43,1.89-4.9.54l-4-51.91c1.11-2.9,2.63-3.33,4.63-.92Z"/><path class="cls-5" d="M119,139.41c0,1.08.06,2.82,0,4.69a1.52,1.52,0,0,0,.62,1.37h1.65a4.27,4.27,0,0,1,4.63-.92l1.75-.62c.72-1.83.19-4.87-.86-5.68Z"/><g class="cls-1"><polygon class="cls-9" points="129.55 119.74 129.54 123.91 121.18 128.76 121.2 124.59 129.55 119.74"/><polygon class="cls-5" points="121.2 124.59 121.18 128.76 112.78 123.91 112.79 119.74 121.2 124.59"/><polygon class="cls-5" points="129.55 119.74 121.2 124.59 112.79 119.74 121.14 114.88 129.55 119.74"/></g><path class="cls-5" d="M103.27,123.74l-10.79,3.68a2.22,2.22,0,0,1-1.44-4.2l.23-.07,11.12-2.52a1.62,1.62,0,0,1,1.94,1.22A1.64,1.64,0,0,1,103.27,123.74Z"/><path class="cls-5" d="M117.52,125.39a1,1,0,0,1-.47-.11l-6.4-3.48a2.79,2.79,0,0,0-2.08-.24l-5.48,1.55a1,1,0,0,1-.52-1.86l5.48-1.55a4.71,4.71,0,0,1,3.53.4l6.4,3.47a1,1,0,0,1-.46,1.82Z"/><path class="cls-10" d="M141.72,109.83l1.41-.81a2.8,2.8,0,0,0,1.16-2.58,8.8,8.8,0,0,0-4-6.89,2.81,2.81,0,0,0-2.81-.28l-1.4.81Z"/><path class="cls-5" d="M136,100.18l-6.36,4.31,5.07,8.77,6.81-3.28.07-.06a2.67,2.67,0,0,0,1.35-2.67,8.8,8.8,0,0,0-4-6.89A2.69,2.69,0,0,0,136,100.18Z"/><path class="cls-9" d="M131.74,115l3.67-2.12a2.55,2.55,0,0,0,1.07-2.35,8,8,0,0,0-3.63-6.28,2.55,2.55,0,0,0-2.57-.26l-3.67,2.12Z"/><path class="cls-5" d="M125.55,108.48c0-2.31,1.62-3.25,3.63-2.1a8.05,8.05,0,0,1,3.63,6.29c0,2.32-1.63,3.25-3.63,2.1A8,8,0,0,1,125.55,108.48Z"/><path class="cls-5" d="M132.51,114.17l3.67-2.12a1.81,1.81,0,0,1-.2.33l-3.67,2.12A1.81,1.81,0,0,0,132.51,114.17Z"/><path class="cls-5" d="M132.71,113.56l3.68-2.12c0,.09,0,.18-.07.26l-3.67,2.12A2.44,2.44,0,0,0,132.71,113.56Z"/><path class="cls-5" d="M132.79,113l3.67-2.12a1.79,1.79,0,0,1,0,.23l-3.67,2.12A1.79,1.79,0,0,0,132.79,113Z"/><path class="cls-5" d="M132.81,112.53l3.67-2.12v.14c0,.08-3.67,2.19-3.67,2.19Z"/><path class="cls-5" d="M132.77,112.06l3.67-2.12a1.49,1.49,0,0,1,0,.21l-3.67,2.12A1.49,1.49,0,0,0,132.77,112.06Z"/><path class="cls-5" d="M132.71,111.61l3.67-2.12,0,.2-3.67,2.12Z"/><path class="cls-5" d="M132.61,111.18l3.67-2.12c0,.06,0,.12,0,.19l-3.67,2.12C132.64,111.3,132.62,111.24,132.61,111.18Z"/><path class="cls-5" d="M132.49,110.76l3.67-2.12a1.21,1.21,0,0,1,.05.18l-3.67,2.12A1.21,1.21,0,0,0,132.49,110.76Z"/><path class="cls-5" d="M132.35,110.35l3.67-2.12.06.18-3.67,2.12Z"/><path class="cls-5" d="M132.18,110l3.67-2.12s.05.11.08.17l-3.67,2.12Z"/><path class="cls-5" d="M132,109.57l3.67-2.12a1.3,1.3,0,0,1,.08.17l-3.67,2.12A1.3,1.3,0,0,0,132,109.57Z"/><path class="cls-5" d="M131.8,109.2l3.67-2.12.09.16-3.67,2.12A1.29,1.29,0,0,0,131.8,109.2Z"/><path class="cls-5" d="M131.59,108.83l3.67-2.12.09.16L131.68,109Z"/><path class="cls-5" d="M131.36,108.48l3.67-2.12.1.15-3.67,2.12Z"/><path class="cls-5" d="M131.11,108.13l3.67-2.12.11.15-3.67,2.12Z"/><path class="cls-5" d="M130.83,107.8l3.67-2.12.13.15L131,108Z"/><path class="cls-5" d="M130.54,107.48l3.67-2.12a.86.86,0,0,1,.13.14l-3.66,2.12A1.85,1.85,0,0,0,130.54,107.48Z"/><path class="cls-5" d="M130.23,107.17l3.67-2.12a1.85,1.85,0,0,1,.14.14l-3.67,2.11Z"/><path class="cls-5" d="M129.89,106.88l3.67-2.12.16.13L130.05,107Z"/><path class="cls-5" d="M129.52,106.6l3.67-2.12.17.12-3.67,2.12Z"/><path class="cls-5" d="M129.11,106.35l3.67-2.12.19.11-3.67,2.12-.12-.08Z"/><path class="cls-5" d="M128.66,106.12l3.67-2.11.2.09-3.67,2.12Z"/><path class="cls-5" d="M128.11,106l3.67-2.12.25.07L128.36,106Z"/><path class="cls-5" d="M127.35,105.9l3.67-2.12a2.41,2.41,0,0,1,.38,0l-3.67,2.12A2.41,2.41,0,0,0,127.35,105.9Z"/><path class="cls-10" d="M130.19,115.8l1.38-.8a2.48,2.48,0,0,0,1-2.3,7.86,7.86,0,0,0-3.55-6.16,2.49,2.49,0,0,0-2.51-.25l-1.39.8Z"/><path class="cls-5" d="M124.12,109.39c0-2.27,1.6-3.19,3.56-2a7.85,7.85,0,0,1,3.55,6.15c0,2.27-1.59,3.19-3.55,2.06A7.88,7.88,0,0,1,124.12,109.39Z"/><path class="cls-9" d="M127.68,117.37l2.22-1.28a2.55,2.55,0,0,0,1.06-2.35,8,8,0,0,0-3.63-6.29,2.56,2.56,0,0,0-2.56-.26l-2.22,1.29Z"/><path class="cls-6" d="M121.49,110.83c0-2.32,1.62-3.26,3.63-2.1a8,8,0,0,1,3.63,6.29c0,2.31-1.63,3.25-3.63,2.09A8,8,0,0,1,121.49,110.83Z"/><path class="cls-5" d="M128.44,116.52l2.22-1.28a2.07,2.07,0,0,1-.19.32l-2.22,1.28A2.07,2.07,0,0,0,128.44,116.52Z"/><path class="cls-5" d="M128.65,115.91l2.22-1.28a2.33,2.33,0,0,1-.07.25l-2.21,1.28A2.27,2.27,0,0,0,128.65,115.91Z"/><path class="cls-5" d="M128.73,115.37l2.22-1.28a1.64,1.64,0,0,1,0,.23l-2.22,1.28A1.64,1.64,0,0,0,128.73,115.37Z"/><path class="cls-5" d="M128.75,114.88,131,113.6a.61.61,0,0,1,0,.14c0,.07-2.22,1.35-2.22,1.35Z"/><path class="cls-5" d="M128.71,114.41l2.22-1.28c0,.06,0,.13,0,.2l-2.22,1.28A1.23,1.23,0,0,0,128.71,114.41Z"/><path class="cls-5" d="M128.64,114l2.22-1.28c0,.06,0,.13,0,.19l-2.22,1.28A1.29,1.29,0,0,0,128.64,114Z"/><path class="cls-5" d="M128.55,113.52l2.21-1.28a1.8,1.8,0,0,1,.05.19l-2.22,1.28C128.58,113.65,128.56,113.59,128.55,113.52Z"/><path class="cls-5" d="M128.43,113.1l2.21-1.28a1.06,1.06,0,0,1,.06.19l-2.22,1.28A1.05,1.05,0,0,0,128.43,113.1Z"/><path class="cls-5" d="M128.29,112.7l2.21-1.28c0,.06.05.11.07.17l-2.22,1.28Z"/><path class="cls-5" d="M128.12,112.3l2.22-1.28a1.22,1.22,0,0,1,.07.17l-2.21,1.28S128.15,112.36,128.12,112.3Z"/><path class="cls-5" d="M127.94,111.92l2.22-1.28.08.16L128,112.08Z"/><path class="cls-5" d="M127.74,111.54l2.22-1.28.09.16-2.22,1.28Z"/><path class="cls-5" d="M127.53,111.18l2.22-1.28.09.15-2.22,1.29Z"/><path class="cls-5" d="M127.3,110.82l2.21-1.28.11.16L127.4,111Z"/><path class="cls-5" d="M127.05,110.48l2.21-1.28.12.15-2.22,1.28Z"/><path class="cls-5" d="M126.77,110.15l2.22-1.28.12.14-2.21,1.28A.86.86,0,0,0,126.77,110.15Z"/><path class="cls-5" d="M126.48,109.82l2.22-1.28.13.14L126.61,110Z"/><path class="cls-5" d="M126.17,109.51l2.22-1.28.14.14-2.22,1.28Z"/><path class="cls-5" d="M125.83,109.22l2.22-1.28.15.13L126,109.35A.93.93,0,0,0,125.83,109.22Z"/><path class="cls-5" d="M125.46,109l2.22-1.28a.91.91,0,0,1,.16.11l-2.21,1.28Z"/><path class="cls-5" d="M125.05,108.69l2.22-1.28.19.11-2.22,1.28-.12-.07Z"/><path class="cls-5" d="M124.59,108.47l2.22-1.28.21.09-2.22,1.28Z"/><path class="cls-5" d="M124,108.3l2.22-1.28a2.44,2.44,0,0,1,.26.06l-2.22,1.28A2.44,2.44,0,0,0,124,108.3Z"/><path class="cls-5" d="M123.29,108.25,125.5,107a1.6,1.6,0,0,1,.38,0l-2.22,1.28A1.51,1.51,0,0,0,123.29,108.25Z"/><path class="cls-5" d="M125.33,118.73l1.92-1.12a2.55,2.55,0,0,0,1.07-2.35,8,8,0,0,0-3.63-6.28,2.55,2.55,0,0,0-2.57-.26l-1.92,1.11Z"/><path class="cls-5" d="M119.13,112.18c0-2.31,1.63-3.25,3.63-2.09a8,8,0,0,1,3.63,6.29c0,2.31-1.62,3.25-3.63,2.09A8,8,0,0,1,119.13,112.18Z"/><path class="cls-9" d="M123.6,119.73l1.41-.82a2.56,2.56,0,0,0,1.06-2.35,8,8,0,0,0-3.63-6.29,2.57,2.57,0,0,0-2.57-.25l-1.41.81Z"/><path class="cls-5" d="M117.4,113.18c0-2.31,1.63-3.25,3.63-2.09a8,8,0,0,1,3.63,6.29c0,2.31-1.62,3.25-3.63,2.09A8,8,0,0,1,117.4,113.18Z"/><path class="cls-5" d="M124.36,118.88l1.41-.82a2.59,2.59,0,0,1-.19.33l-1.41.81A3.37,3.37,0,0,0,124.36,118.88Z"/><path class="cls-5" d="M124.57,118.27l1.41-.82a2.5,2.5,0,0,1-.07.26l-1.41.81A2.33,2.33,0,0,0,124.57,118.27Z"/><path class="cls-5" d="M124.65,117.73l1.41-.81,0,.23-1.41.81Z"/><path class="cls-5" d="M124.66,117.23l1.41-.81v.14a15.66,15.66,0,0,1-1.41.89Z"/><path class="cls-5" d="M124.62,116.77,126,116a1.23,1.23,0,0,0,0,.2l-1.41.82Z"/><path class="cls-5" d="M124.56,116.32l1.41-.82,0,.2-1.41.81Z"/><path class="cls-5" d="M124.46,115.88l1.41-.81c0,.06,0,.12,0,.19l-1.41.81C124.49,116,124.48,115.94,124.46,115.88Z"/><path class="cls-5" d="M124.34,115.46l1.41-.81.06.18-1.41.81Z"/><path class="cls-5" d="M124.2,115.06l1.41-.82.06.18-1.41.81Z"/><path class="cls-5" d="M124,114.66l1.41-.82.07.18-1.41.81C124.09,114.77,124.06,114.72,124,114.66Z"/><path class="cls-5" d="M123.86,114.27l1.41-.81a1.3,1.3,0,0,0,.08.17l-1.41.81A.89.89,0,0,1,123.86,114.27Z"/><path class="cls-5" d="M123.66,113.9l1.41-.81.09.16-1.41.81Z"/><path class="cls-5" d="M123.44,113.53l1.41-.81.1.16-1.41.81S123.47,113.59,123.44,113.53Z"/><path class="cls-5" d="M123.21,113.18l1.41-.81.1.15-1.41.82C123.28,113.28,123.24,113.23,123.21,113.18Z"/><path class="cls-5" d="M123,112.84l1.41-.82.11.15-1.41.82Z"/><path class="cls-5" d="M122.69,112.5l1.41-.81s.08.09.12.15l-1.41.81Z"/><path class="cls-5" d="M122.4,112.18l1.41-.81.13.14-1.41.81Z"/><path class="cls-5" d="M122.08,111.87l1.41-.81.14.13-1.41.82A1.85,1.85,0,0,0,122.08,111.87Z"/><path class="cls-5" d="M121.75,111.58l1.41-.81.15.12-1.41.82Z"/><path class="cls-5" d="M121.37,111.3l1.42-.81.16.12-1.41.81Z"/><path class="cls-5" d="M121,111.05l1.41-.81.18.11-1.41.81-.12-.07Z"/><path class="cls-5" d="M120.51,110.83l1.41-.82.21.1-1.41.81Z"/><path class="cls-5" d="M120,110.66l1.41-.82.25.07-1.41.81Z"/><path class="cls-5" d="M119.2,110.6l1.41-.81a2.41,2.41,0,0,1,.38,0l-1.41.81Z"/><path class="cls-9" d="M109.14,106.61a.76.76,0,0,1,.47-.7l4.43-2.56a2.48,2.48,0,0,1,2.25,0l2.11,1.22a.78.78,0,0,1,.46.65v2.31l.59.34,0,9.73-4.38,2.53-5.48-3.19a.78.78,0,0,1-.47-.64l0-9.74Z"/><g class="cls-1"><path class="cls-5" d="M118.39,105.87a.77.77,0,0,0,.47-.65l0,9.73a.81.81,0,0,1-.47.66l-1.19.68,0-9.73Z"/><polygon class="cls-9" points="115.08 110.4 115.11 120.13 119.49 117.6 119.46 107.87 115.08 110.4"/><path class="cls-5" d="M109.6,107.21l5.48,3.19,0,9.73-5.48-3.19a.78.78,0,0,1-.47-.64l0-9.74A.78.78,0,0,0,109.6,107.21Z"/><path class="cls-8" d="M109.61,105.91a.69.69,0,0,0,0,1.3l5.48,3.19,4.38-2.53-2.25-1.31,1.18-.69a.69.69,0,0,0,0-1.3l-2.11-1.22a2.48,2.48,0,0,0-2.25,0Z"/><path class="cls-8" d="M109.61,105.91a.69.69,0,0,0,0,1.3l5.48,3.19,4.38-2.53-2.25-1.31,1.18-.69a.69.69,0,0,0,0-1.3l-2.11-1.22a2.48,2.48,0,0,0-2.25,0Z"/></g><path class="cls-5" d="M127.19,111.65a2.67,2.67,0,0,1,1.2,2.53v6.39a2.8,2.8,0,0,1-1.27,2.2l-3.8,2.18a.86.86,0,0,1-.89.08L114,120.19a.88.88,0,0,1-.38-.83V110a2.74,2.74,0,0,1,1.25-2.16l1.26-.73a2.7,2.7,0,0,1,2.69-.26l8.45,4.85Z"/><g class="cls-1"><path class="cls-9" d="M113.61,110v9.37a.88.88,0,0,0,.38.83l7.67,4.4.77.44a.89.89,0,0,1-.38-.82v-9.38a2.75,2.75,0,0,1,1.25-2.16l1.26-.72a2.7,2.7,0,0,1,2.7-.26l-8.44-4.85a2.72,2.72,0,0,0-2.7.26l-1.26.73A2.74,2.74,0,0,0,113.61,110Z"/><path class="cls-11" d="M114,110V120.2l7.65,4.39v-9.76a3.12,3.12,0,0,1,1.44-2.5l1.27-.73a4.79,4.79,0,0,1,1.12-.47l-6.87-3.94a1.53,1.53,0,0,0-.8-.2,3.11,3.11,0,0,0-1.5.46l-1.26.72A2.36,2.36,0,0,0,114,110Z"/><path class="cls-12" d="M128.39,114.18c0-2.44-1.71-3.45-3.83-2.23l-1.26.72a2.75,2.75,0,0,0-1.25,2.16v9.38c0,.81.57,1.14,1.27.74l3.8-2.18a2.8,2.8,0,0,0,1.27-2.2Z"/></g><path class="cls-9" d="M127.31,112.39l4.15,2.42a.78.78,0,0,1,.46.65l0,9.73a.81.81,0,0,1-.47.65l-2.12,1.23a2.48,2.48,0,0,1-2.25,0L123,124.66l0-9.74Z"/><g class="cls-1"><path class="cls-5" d="M127.08,117.33a2.45,2.45,0,0,0,2.25,0l2.12-1.22a.79.79,0,0,0,.47-.66l0,9.74a.81.81,0,0,1-.47.65l-2.12,1.23a2.48,2.48,0,0,1-2.25,0L123,124.66l0-9.74Z"/><path class="cls-8" d="M122.93,114.92l4.15,2.41a2.48,2.48,0,0,0,2.25,0l2.12-1.23a.69.69,0,0,0,0-1.3l-4.15-2.42Z"/></g><path class="cls-9" d="M131.15,122.72l-.53-.31a.51.51,0,0,1-.22-.48,1.64,1.64,0,0,1,.74-1.29.52.52,0,0,1,.53,0l.54.31Z"/><path class="cls-8" d="M132.42,121.38c0-.48-.33-.67-.74-.43a1.64,1.64,0,0,0-.75,1.29c0,.47.34.67.75.43A1.66,1.66,0,0,0,132.42,121.38Z"/><path class="cls-5" d="M132,121.6c0-.22-.16-.31-.35-.2a.78.78,0,0,0-.36.61c0,.23.16.32.36.21A.81.81,0,0,0,132,121.6Z"/><path class="cls-9" d="M111.16,112.87l.88-.51a.88.88,0,0,0,.36-.8,2.7,2.7,0,0,0-1.23-2.12.86.86,0,0,0-.86-.09l-.88.51Z"/><path class="cls-5" d="M109.07,110.66c0-.79.55-1.1,1.22-.71a2.7,2.7,0,0,1,1.23,2.12c0,.78-.55,1.1-1.23.71A2.72,2.72,0,0,1,109.07,110.66Z"/><path class="cls-13" d="M123.63,117.28a.73.73,0,0,1-.33-.57c0-.21.15-.3.33-.19l2.44,1.41a.71.71,0,0,1,.34.57c0,.21-.15.3-.34.19Z"/><path class="cls-9" d="M132,118.21v.84a.71.71,0,0,1-.42.59,2.25,2.25,0,0,1-2.05,0,6.48,6.48,0,0,1,0-.87l1-.56Z"/><path class="cls-7" d="M132,118.21a.73.73,0,0,1-.42.59,2.31,2.31,0,0,1-2.05,0,8.65,8.65,0,0,1,.93-.59l1.07-.62C131.81,117.78,132,118,132,118.21Z"/><path class="cls-9" d="M129.6,114.31v.54a.87.87,0,0,1-.52.72,2.73,2.73,0,0,1-2.49,0,.87.87,0,0,1-.52-.72v-.54Z"/><path class="cls-5" d="M126.59,113.59a.76.76,0,0,0,0,1.44,2.73,2.73,0,0,0,2.49,0,.76.76,0,0,0,0-1.44A2.8,2.8,0,0,0,126.59,113.59Z"/><path class="cls-9" d="M129,112.81v1.39a.61.61,0,0,1-.35.48,1.86,1.86,0,0,1-1.66,0,.59.59,0,0,1-.34-.48v-1.39Z"/><path class="cls-5" d="M127,112.33a.51.51,0,0,0,0,1,1.86,1.86,0,0,0,1.66,0c.46-.26.46-.69,0-1A1.86,1.86,0,0,0,127,112.33Z"/><path class="cls-8" d="M127.37,112.32a.28.28,0,0,0,0,.54,1,1,0,0,0,.93,0,.28.28,0,0,0,0-.54A1,1,0,0,0,127.37,112.32Z"/><path class="cls-13" d="M127.68,115.61a.15.15,0,0,0,.15.15.15.15,0,0,0,.15-.15.14.14,0,0,0-.15-.15A.15.15,0,0,0,127.68,115.61Z"/><path class="cls-13" d="M129.06,115.26c0,.08,0,.15.09.15s.08-.07.08-.15,0-.15-.08-.15S129.06,115.17,129.06,115.26Z"/><path class="cls-13" d="M126.46,115.26c0,.08,0,.15.08.15s.09-.07.09-.15,0-.15-.09-.15S126.46,115.17,126.46,115.26Z"/><path class="cls-5" d="M116.1,103.81a.45.45,0,0,1,0,.85L113.78,106a1.63,1.63,0,0,1-1.46,0,.45.45,0,0,1,0-.85l2.32-1.34a1.63,1.63,0,0,1,1.46,0Z"/><path class="cls-9" d="M116.1,103.5a.44.44,0,0,1,0,.84l-2.32,1.34a1.63,1.63,0,0,1-1.46,0,.45.45,0,0,1,0-.85l2.32-1.33a1.57,1.57,0,0,1,1.46,0Z"/><path class="cls-5" d="M114.43,106.63v.72a.63.63,0,0,1-.37.51,2,2,0,0,1-1.76,0,.64.64,0,0,1-.36-.51v-.72Z"/><path class="cls-10" d="M112.3,106.12c-.49.28-.49.73,0,1a2,2,0,0,0,1.76,0c.49-.29.49-.74,0-1A2,2,0,0,0,112.3,106.12Z"/><path class="cls-5" d="M118,105v.4a.33.33,0,0,1-.2.28,1.06,1.06,0,0,1-1,0,.35.35,0,0,1-.2-.28V105Z"/><path class="cls-5" d="M116.86,104.74c-.27.15-.27.4,0,.56a1.06,1.06,0,0,0,1,0c.27-.16.27-.41,0-.56A1.06,1.06,0,0,0,116.86,104.74Z"/><polygon class="cls-9" points="116.84 113.34 114.93 112.24 114.93 110.92 116.84 112.03 116.84 113.34"/><polygon class="cls-10" points="116.58 112.97 115.18 112.15 115.18 111.3 116.58 112.11 116.58 112.97"/><polygon class="cls-9" points="114.44 119.29 121.06 123.12 121.06 117.12 114.44 113.3 114.44 119.29"/><polygon class="cls-5" points="114.84 113.98 114.84 119.06 120.67 122.43 120.67 117.35 115.08 114.12 114.84 113.98"/><polygon class="cls-14" points="115.08 114.12 115.08 118.9 115.22 118.98 115.55 119.17 117.62 120.37 120.67 122.13 120.67 117.35 119.58 116.72 119.22 116.51 118.51 116.1 115.08 114.12"/><polygon class="cls-15" points="115.55 119.17 117.62 120.37 120.67 118.63 120.67 117.35 119.58 116.72 115.55 119.17"/><polygon class="cls-15" points="115.08 118.26 115.08 118.9 115.22 118.98 119.22 116.51 118.51 116.1 115.08 118.26"/><polygon class="cls-9" points="123.79 105.58 123.81 110.15 120.85 111.86 117.59 104.67 123.79 105.58"/><polygon class="cls-9" points="123.79 105.58 123.81 110.15 120.85 111.86 117.59 104.67 123.79 105.58"/><polygon class="cls-16" points="120.85 111.86 116.98 109.61 117.59 104.67 121.46 106.92 120.85 111.86"/><polygon class="cls-17" points="121.46 106.92 117.59 104.67 119.92 103.33 123.79 105.58 121.46 106.92"/><path class="cls-5" d="M116.79,102.59l3.48-2,5.85,3.4v3.6l-3.48,2a.64.64,0,0,1-.7,0l-5.82-3.37a.67.67,0,0,1-.28-.61v-1.43A2.08,2.08,0,0,1,116.79,102.59Z"/><g class="cls-1"><path class="cls-9" d="M116.79,102.59l3.48-2,5.85,3.4-3.48,2a2.08,2.08,0,0,0-.94,1.62v1.44a.64.64,0,0,0,.28.6l-5.85-3.39a.67.67,0,0,1-.28-.61v-1.43A2.08,2.08,0,0,1,116.79,102.59Z"/><path class="cls-5" d="M122.64,106a2.08,2.08,0,0,0-.94,1.62v1.44c0,.6.43.84,1,.54l3.48-2V104Z"/></g><g id="Cara"><path class="cls-18" d="M139.32,115.33l2.41-7.43c.57-1.49,2.21-1.21,1.79.43l-1.29,6,4.28-7.91c.88-1.3,2.45-.52,1.86.89l-3.25,7.49,5.17-6.67c.9-1.22,2.33-.26,1.25,1.41l-3.49,6.55,3.91-3.87c1.14-.91,2,.18,1.13,1.15l-4.74,5.36a17.06,17.06,0,0,1-3.43,9.39c-1.6,1.92-5.81,5-6.3,4.7l-4.79-4.76,4-1.56a4.66,4.66,0,0,1-.88-2.33c0-.15,0-.29,0-.44a8.17,8.17,0,0,1,0-1l.08-.24.52-7.3C137.62,113.38,139.15,113.74,139.32,115.33Z"/><path class="cls-19" d="M110.71,278.77c0-3.43-2.65-4.75-6.58-5.18-3.44,0-8.06,1.54-14.12,2.94l-6.92,3.78a15.47,15.47,0,0,0-.5,9.62c1.94,1.68,4.41,2.72,6.69,2.1l7.77-3.29.56-1.12C103.81,287,110.72,284.13,110.71,278.77Z"/><path class="cls-20" d="M85.46,265c0-2.81-2.51-3.29-6.26-3.58-6.78,0-7.07,3.39-13.3,3.24l-6.12,3.72a18.31,18.31,0,0,0-.27,10.31,8.79,8.79,0,0,0,6.82,1.66l6.29-3.71.54-1.14C79.07,274.62,85.46,270.23,85.46,265Z"/><path class="cls-21" d="M63.27,169.26l22.57,9.44a77,77,0,0,1-.45,10.56c-1.42,10.4-5.62,26.12-5.62,26.12-3,13.36-4.24,30-4.94,47.43-.12,6.3-9.48,11.82-15.48,5.86-1.73-21.33-1.72-42.06,3.3-55.79-2.4-10.84-.13-22.93.54-35.42C62.61,177.22,63.9,169.52,63.27,169.26Z"/><path class="cls-22" d="M80.16,191.67c0,12.48-.13,22.55,2.87,33.37-4.25,13.71-3.1,34.12-.19,55.43a9.17,9.17,0,0,0,12.21,1.67A7.39,7.39,0,0,0,98,274.91l2.3-47.37s3.33-15.7,4.17-26.09-2.82-34.13-2.82-34.13a43.81,43.81,0,0,1-6.06,1.19C82.15,170.2,69.8,165.41,66,157.73c-.2.56-.39,1.13-.57,1.69a54.77,54.77,0,0,0-2.5,14.42C62.46,184.8,73.21,188.84,80.16,191.67Z"/><path class="cls-23" d="M58.31,120.12c1.44,17.37,5.16,34.35,7.08,39.3,8.37,11.93,18.92,13.72,30.52,10.06a52.43,52.43,0,0,0,5.73-2.16c2.16-8.5,1.5-20.31,1.9-31.78a101,101,0,0,1,1-12.39c-11.12-9.76-21-14.1-35.35-17.56C62.13,105.59,58.35,112.15,58.31,120.12Z"/><path class="cls-24" d="M95.91,169.48a52.43,52.43,0,0,0,5.73-2.16c2.16-8.5,1.5-20.31,1.9-31.78l-6.06-1.14C98.15,146.75,98.26,158.81,95.91,169.48Z"/><path class="cls-18" d="M91.66,105.66l.13,8.61c-9,4.55-19.3-2.67-17.92-6.41l3.7-7.09Z"/><path class="cls-25" d="M104.46,201.45c-.84,10.39-4.17,26.08-4.17,26.08L98,274.91a7.44,7.44,0,0,1-3,7.24c2.06-19.93,3-38.62,0-53.08,4.46-16.41,6.48-33.6,1.36-46.27.06-5.06.61-9.64-.47-13.32a50.46,50.46,0,0,0,5.73-2.16S105.3,191.07,104.46,201.45Z"/><path class="cls-26" d="M96.89,138.35c5,6.91,23.54,7.67,27.42,7.67,7.28-4.32,9.7-6.41,16.74-14.49,1.86-4.43-1-7.9-4.22-7.16-6.52,3-9.46,3.95-13.37,6.37-8.49-4-13.61-5.56-18.88-7.6C97.93,126.48,91.83,131.27,96.89,138.35Z"/><path class="cls-18" d="M95.6,105.68c-2.79,3.18-7,2.76-11.29,1.62C78,104.41,73.53,100.12,74.15,92c-.5-5.92,2.18-12.13,12.28-11.8,6.42.2,11.9,2.54,12.28,9.4C98.71,89.56,99.05,102.52,95.6,105.68Z"/><path class="cls-27" d="M74.09,95.78a31.52,31.52,0,0,0,1,5.21,7.79,7.79,0,0,0,1,2.25c2.17,3.13,9.32,5.77,14.12,2.31l1.43-4s2.78-2.41,3.07-2.5-.2-5.43-.2-5.43a9.69,9.69,0,0,0,4.11-5.72c.67-5.37-4.29-10-12.25-9.68S74.61,83.62,73.85,88.85A42.52,42.52,0,0,0,74.09,95.78Z"/><path class="cls-18" d="M93.91,99.8c.77-.86-.42-2.86-1.28-3.14-1.2-.39-1.86,1.35-2,2.31a4.37,4.37,0,0,0,.71,3.32c.82,1.21,2.1,0,2.51-1C94.15,100.63,93.42,100.35,93.91,99.8Z"/><path class="cls-28" d="M79.8,98.67l-.42,1.5A10.94,10.94,0,0,1,74.89,98l-.32-1.88A9.68,9.68,0,0,0,79.8,98.67Z"/><path class="cls-29" d="M96.32,92.21C101.49,88,106,85,106.07,82.13c0-4-4.43-6.95-8.11-6.71-2.91.25-6.25,1.71-9.78,3.71Z"/><path class="cls-30" d="M97.93,86.91c.54,7.72-7.3,12.75-16.27,13.41a11.57,11.57,0,0,1-2.28-.15,4,4,0,0,0-2.45-4.64c-1.64-.72-2.28.32-2,2.42-1.94-2-1.9-5-1.43-8.7C75.44,82.43,79,77.7,87.34,77,92.27,77.47,96.74,80,97.93,86.91Z"/></g><g id="mulher"><path class="cls-31" d="M208.25,29.49c3.35,6.58,3.07,19.72,2.47,33.41.23,8.29-3.05,16-7.81,26.73l-3.3,15.55A36.29,36.29,0,0,1,197.05,90c1.46-10.9,2.46-18.41,3.78-28.25l-2.74-19.12C195,34.44,201.58,23.07,208.25,29.49Z"/><path class="cls-27" d="M215.15,12.49c-7.24,1-8.65,9.77-11.35,14.92C193.16,19.37,200.71,3.37,215.15,12.49Z"/><path class="cls-32" d="M224,179.46a22.89,22.89,0,0,1-6.46,8.84c-3.54,2.86-6.83,4.6-9.63,4.23-2.7-1-2.56-3.3-1.5-6.41,1.54-3.21,4.95-6.19,8.75-8.77,0,0,4.18-3.59,4.18-3.75S224,179.46,224,179.46Z"/><path class="cls-33" d="M204.34,142.85c2.91,8.56,8.26,19.65,14.28,31.46,0,0-7.42,6.46-4.37,8.79,4.52,3.46,10.31-7.44,10.31-7.44l-8.59-30Z"/><path class="cls-34" d="M229.75,185.06l.15.43c1.31.06,2.95,4.38,2.37,7.69-1.86,4.94.07,8.81-.69,14.38-.46,3.43-1.63,6-4.35,7.66-4.54,2.71-7.89,3.21-8.42-.62-.51-2.63,0-5.17,1.19-9.21l2.17-10.68Z"/><path class="cls-31" d="M223.3,206.27c6.19.76,7.2-6.83,7.25-13.58,0-2-.05-4-.09-5.58-5.51-13.8,4.2-26.2-2.44-38.2l.85-4.93,2.26-13.14-15.9-1.91-2.84,14.58-1,8.67c1.75,11.6,9.51,24.62,11.11,37C222.82,194.89,219.6,205.81,223.3,206.27Z"/><path class="cls-35" d="M221.6,151.05c7.36,5.85.84,30.33,9,41.64,0-2-.05-4-.09-5.58-5.51-13.8,4.2-26.2-2.44-38.2l.85-4.93C225.66,147.06,221.6,151.05,221.6,151.05Z"/><path class="cls-36" d="M199.51,106.79c-.5,17,4.43,19.36,4,31.22a10.78,10.78,0,0,0,.3,2.92c.91,4,3.76,8.36,7.25,9.91a6.66,6.66,0,0,0,1.06.37,30.08,30.08,0,0,0,9.84-.1,9.72,9.72,0,0,0,7.32-5.9c-.07-12.6,9.45-21.5,10.5-38.2.45-7.11-1.25-13.84-5.78-18.79l-5.58-.09-27.71-.44Z"/><path class="cls-37" d="M231.48,123.88c-5.78,8.82-6.17,21.1-9.88,27.17l.35.06a9.72,9.72,0,0,0,7.32-5.9c-.07-12.6,9.45-21.5,10.5-38.2.45-7.11-1.25-13.84-5.78-18.79l-5.58-.09L213,96.45c8.43,2.06,15.88,5.28,18.87,13.7l-1.15,5.42Z"/><path class="cls-27" d="M218.47,19c10.11-.83,14.36,6.19,15.21,12.57,1.14,8.52-.72,12-3.64,16.44-2.06,3.16-8,8.34-8,8.34-3.53-16.53,4.56-26.3,1.55-31.2-1.57-2.54-5.18-3.83-5.18-3.83Z"/><path class="cls-38" d="M202.51,69a37.31,37.31,0,0,1-1.81,18.67c.67,4.13,3,7.19,8.38,8.19,11.7,2.19,21.51-.26,26.19-6.39-4.24-4.38-4.18-11-1.46-17.16a35.82,35.82,0,0,0,4.27-11.08,55.34,55.34,0,0,0,.82-15.68c-5.61-5.7-11.46-10.45-18.07-11.89L206.14,28.1c-4.37.63-7.88,8.51-6.71,14.4-.58,9.12-5.06,12.94-5.19,18.6C194.16,65.66,197.19,68.61,202.51,69Z"/><path class="cls-39" d="M200.7,87.69c.67,4.13,3,7.19,8.38,8.19,11.7,2.19,21.51-.26,26.19-6.39-4.24-4.38-4.18-11-1.46-17.16a35.82,35.82,0,0,0,4.27-11.08l-6.83-.19c-4.17,9-6,17.85-14.81,16.23-6.13-1.16-8.06-6.25-6.6-12.46-1.75,2.19-5.17,4.33-7.33,4.19A37.31,37.31,0,0,1,200.7,87.69Z"/><path class="cls-31" d="M227.47,36.28a23.14,23.14,0,0,1-3-10.4l-11.67.94.13,8.33C208.59,47.2,226.3,44,227.47,36.28Z"/><path class="cls-35" d="M220.12,28.53c-.83,6.88-3.27,17.18-9.47,13.93-3.61-1.89-2.31-7.66-1.56-12.61Z"/><path class="cls-31" d="M224.71,28c6.53-11,3.18-20.53-5.73-22.6-9.74-2.27-16.29,4.75-16.29,13.3-.29,9,2,15.41,5.41,16,5.63.91,9.73-1.6,11.37-5.37Z"/><path class="cls-27" d="M226.19,29.51l.26,4.79c-1.81-5.18-4.49-5.34-4.71-6.85l-.43-2.84-2.57,1.1c-5.26.28-6.2-8.94-16-7.76-.85-8.79,5.7-13.64,13.75-13.56,9.77.82,12.88,6.51,12.53,13.5C228.76,22.25,228.2,26.09,226.19,29.51Z"/><path class="cls-31" d="M218.66,28.68c-.5-1.37-.63-1.21-.42-1.82.6-1.75,1.68-3.09,2.75-2.8.7.19,1.5.34,1.81,1a3,3,0,0,1-.3,2.46,5.41,5.41,0,0,1-.9,1.59,1.83,1.83,0,0,1-1.63.66A1.75,1.75,0,0,1,218.66,28.68Z"/><path class="cls-31" d="M245.31,106.58l.85,5.25.23,4.73-1,3.62c-.17.85-1.08,1.17-.86.15l-.85,3.93c-.15,1.15-1.31,1.28-1.33.19l.41-5.1-2.51,7.18c-.4,1.07-1.66,1.29-1.49-.12l1.5-7.7L238.28,123l-2,3c-.85,1-2.13.64-1.66-.59l2.06-4.06s.77-3.1,1-4.54a28.34,28.34,0,0,0-.84-2.88l-5.19,3.35c-1.43.62-2.14-.61-.91-1.69l5.05-5.37,3.3-2.46.28-.2.56-2.58,5.24-.1Z"/><path class="cls-31" d="M239.06,46.13c4.48,5.88,6.55,18.85,8.42,32.42,1.71,8.12.4,18.47-2.36,29.89l-6.1,1.92c-.52-11-1-21.22-1.48-31.14l-8.67-18.37C225,55.68,231.34,41,239.06,46.13Z"/><path class="cls-37" d="M203.8,140.93c.91,4,3.76,8.36,7.25,9.91a16.94,16.94,0,0,1-.81-3.42c-1.09-8.32,2.36-15.69.88-20.49a27.8,27.8,0,0,1-2.41,8.43C207.47,137.93,205.79,139.14,203.8,140.93Z"/></g></g></g></svg>